STARTFONT 2.1
FONT -FontForge-Orange Kid-Book-R-Normal--25-240-75-75-P-100-ISO10646-1
SIZE 24 75 75
FONTBOUNDINGBOX 24 31 -4 -6
COMMENT "Generated by fontforge, http://fontforge.sourceforge.net"
COMMENT "(c) 1999-2009 Ray Larabie. See attached license agreement for more information. If EULA is missing, visit www.larabiefonts.com for an updated version of this font."
STARTPROPERTIES 39
FOUNDRY "FontForge"
FAMILY_NAME "Orange Kid"
WEIGHT_NAME "Book"
SLANT "R"
SETWIDTH_NAME "Normal"
ADD_STYLE_NAME ""
PIXEL_SIZE 25
POINT_SIZE 240
RESOLUTION_X 75
RESOLUTION_Y 75
SPACING "P"
AVERAGE_WIDTH 100
CHARSET_REGISTRY "ISO10646"
CHARSET_ENCODING "1"
FONTNAME_REGISTRY ""
CHARSET_COLLECTIONS "ISO8859-2 ISO8859-7 ISO8859-9 ISO8859-4 ISO10646-1"
FONT_NAME "OrangeKid-Regular"
FACE_NAME "OrangeKid-Regular"
COPYRIGHT "(c) 1999-2009 Ray Larabie. See attached license agreement for more information. If EULA is missing, visit www.larabiefonts.com for an updated version of this font."
FONT_VERSION "OTF 4.000;PS 001.001;Core 1.0.29"
FONT_ASCENT 19
FONT_DESCENT 6
UNDERLINE_POSITION -4
UNDERLINE_THICKNESS 1
X_HEIGHT 10
CAP_HEIGHT 14
RAW_ASCENT 778
RAW_DESCENT 222
NORM_SPACE 5
RELATIVE_WEIGHT 40
RELATIVE_SETWIDTH 50
SUPERSCRIPT_X 0
SUPERSCRIPT_Y 7
SUPERSCRIPT_SIZE 7
SUBSCRIPT_X 0
SUBSCRIPT_Y 0
SUBSCRIPT_SIZE 7
AVG_LOWERCASE_WIDTH 94
AVG_UPPERCASE_WIDTH 108
ENDPROPERTIES
CHARS 561
STARTCHAR uni0017
ENCODING 23
SWIDTH 184 0
DWIDTH 5 0
BBX 1 1 0 0
BITMAP
00
ENDCHAR
STARTCHAR space
ENCODING 32
SWIDTH 184 0
DWIDTH 5 0
BBX 1 1 0 0
BITMAP
00
ENDCHAR
STARTCHAR exclam
ENCODING 33
SWIDTH 186 0
DWIDTH 5 0
BBX 2 15 1 0
BITMAP
C0
C0
C0
C0
C0
C0
C0
C0
C0
C0
C0
00
00
C0
C0
ENDCHAR
STARTCHAR quotedbl
ENCODING 34
SWIDTH 284 0
DWIDTH 7 0
BBX 5 6 1 11
BITMAP
D8
D8
D8
D8
D8
D8
ENDCHAR
STARTCHAR numbersign
ENCODING 35
SWIDTH 456 0
DWIDTH 11 0
BBX 9 10 1 3
BITMAP
3300
3300
FF80
FF80
3300
FF80
FF80
3300
3300
0300
ENDCHAR
STARTCHAR dollar
ENCODING 36
SWIDTH 456 0
DWIDTH 11 0
BBX 9 19 1 -4
BITMAP
0C00
0C00
3F00
3F00
CD80
CD80
3C00
3F00
0F00
CD80
CD80
CD80
CD80
3F00
3F00
0C00
0C00
0C00
0C00
ENDCHAR
STARTCHAR percent
ENCODING 37
SWIDTH 752 0
DWIDTH 19 0
BBX 17 13 1 0
BITMAP
3C1800
3C1800
C36000
C36000
C36000
FFFE00
3D9E00
036180
036180
036180
036180
0C1E00
0C1E00
ENDCHAR
STARTCHAR ampersand
ENCODING 38
SWIDTH 530 0
DWIDTH 13 0
BBX 11 15 1 0
BITMAP
3C00
3C00
C300
C300
C300
C300
3C60
FF60
C360
C180
C180
C360
C360
3C60
3C60
ENDCHAR
STARTCHAR quotesingle
ENCODING 39
SWIDTH 142 0
DWIDTH 4 0
BBX 2 6 1 11
BITMAP
C0
C0
C0
C0
C0
C0
ENDCHAR
STARTCHAR parenleft
ENCODING 40
SWIDTH 326 0
DWIDTH 8 0
BBX 6 23 1 -4
BITMAP
0C
0C
30
30
30
30
C0
C0
C0
C0
C0
C0
C0
C0
C0
C0
C0
30
30
30
30
0C
0C
ENDCHAR
STARTCHAR parenright
ENCODING 41
SWIDTH 341 0
DWIDTH 9 0
BBX 6 23 1 -4
BITMAP
C0
C0
30
30
30
30
0C
0C
0C
0C
0C
0C
0C
0C
0C
0C
0C
30
30
30
30
C0
C0
ENDCHAR
STARTCHAR asterisk
ENCODING 42
SWIDTH 308 0
DWIDTH 8 0
BBX 6 5 1 4
BITMAP
CC
FC
30
CC
CC
ENDCHAR
STARTCHAR plus
ENCODING 43
SWIDTH 456 0
DWIDTH 11 0
BBX 9 9 1 2
BITMAP
0C00
0C00
0C00
FF80
FF80
0C00
0C00
0C00
0C00
ENDCHAR
STARTCHAR comma
ENCODING 44
SWIDTH 234 0
DWIDTH 6 0
BBX 4 6 1 -4
BITMAP
30
30
30
30
C0
C0
ENDCHAR
STARTCHAR hyphen
ENCODING 45
SWIDTH 279 0
DWIDTH 7 0
BBX 5 2 1 6
BITMAP
F8
F8
ENDCHAR
STARTCHAR period
ENCODING 46
SWIDTH 160 0
DWIDTH 4 0
BBX 2 2 1 0
BITMAP
C0
C0
ENDCHAR
STARTCHAR slash
ENCODING 47
SWIDTH 382 0
DWIDTH 10 0
BBX 8 15 1 0
BITMAP
03
03
03
03
0C
0C
0C
3C
30
30
30
C0
C0
C0
C0
ENDCHAR
STARTCHAR zero
ENCODING 48
SWIDTH 382 0
DWIDTH 10 0
BBX 8 15 1 0
BITMAP
3C
3C
C3
C3
C3
C3
C3
C3
C3
C3
C3
C3
C3
3C
3C
ENDCHAR
STARTCHAR one
ENCODING 49
SWIDTH 234 0
DWIDTH 6 0
BBX 4 15 1 0
BITMAP
30
30
F0
F0
30
30
30
30
30
30
30
30
30
30
30
ENDCHAR
STARTCHAR two
ENCODING 50
SWIDTH 382 0
DWIDTH 10 0
BBX 8 15 1 0
BITMAP
3C
3C
C3
C3
03
03
0C
3C
30
30
30
C0
C0
FF
FF
ENDCHAR
STARTCHAR three
ENCODING 51
SWIDTH 382 0
DWIDTH 10 0
BBX 8 15 1 0
BITMAP
3C
3C
C3
C3
03
03
3C
3F
03
03
03
C3
C3
3C
3C
ENDCHAR
STARTCHAR four
ENCODING 52
SWIDTH 434 0
DWIDTH 11 0
BBX 9 15 1 0
BITMAP
0600
0600
1E00
1E00
3600
3600
3600
F600
C600
FF80
FF80
0600
0600
0600
0600
ENDCHAR
STARTCHAR five
ENCODING 53
SWIDTH 382 0
DWIDTH 10 0
BBX 8 15 1 0
BITMAP
FF
FF
C0
C0
FC
FC
03
03
03
C3
C3
C3
C3
3C
3C
ENDCHAR
STARTCHAR six
ENCODING 54
SWIDTH 382 0
DWIDTH 10 0
BBX 8 15 1 0
BITMAP
3C
3C
C0
C0
FC
FC
C3
C3
C3
C3
C3
C3
C3
3C
3C
ENDCHAR
STARTCHAR seven
ENCODING 55
SWIDTH 382 0
DWIDTH 10 0
BBX 8 15 1 0
BITMAP
FF
FF
03
03
0C
0C
0C
0C
0C
30
30
30
30
30
30
ENDCHAR
STARTCHAR eight
ENCODING 56
SWIDTH 382 0
DWIDTH 10 0
BBX 8 15 1 0
BITMAP
3C
3C
C3
C3
C3
C3
3C
FF
C3
C3
C3
C3
C3
3C
3C
ENDCHAR
STARTCHAR nine
ENCODING 57
SWIDTH 382 0
DWIDTH 10 0
BBX 8 15 1 0
BITMAP
3C
3C
C3
C3
C3
C3
C3
FF
3F
03
03
C3
C3
3C
3C
ENDCHAR
STARTCHAR colon
ENCODING 58
SWIDTH 160 0
DWIDTH 4 0
BBX 2 9 1 0
BITMAP
C0
C0
00
00
00
00
00
C0
C0
ENDCHAR
STARTCHAR semicolon
ENCODING 59
SWIDTH 234 0
DWIDTH 6 0
BBX 4 13 1 -4
BITMAP
30
30
00
00
00
00
00
30
30
30
30
C0
C0
ENDCHAR
STARTCHAR less
ENCODING 60
SWIDTH 308 0
DWIDTH 8 0
BBX 6 9 1 2
BITMAP
0C
0C
30
F0
C0
30
30
0C
0C
ENDCHAR
STARTCHAR equal
ENCODING 61
SWIDTH 456 0
DWIDTH 11 0
BBX 9 5 1 4
BITMAP
FF80
FF80
0000
FF80
FF80
ENDCHAR
STARTCHAR greater
ENCODING 62
SWIDTH 308 0
DWIDTH 8 0
BBX 6 9 1 2
BITMAP
C0
C0
30
3C
0C
30
30
C0
C0
ENDCHAR
STARTCHAR question
ENCODING 63
SWIDTH 382 0
DWIDTH 10 0
BBX 8 15 1 0
BITMAP
3C
3C
C3
C3
C3
C3
0C
3C
30
30
30
00
00
30
30
ENDCHAR
STARTCHAR at
ENCODING 64
SWIDTH 604 0
DWIDTH 15 0
BBX 13 15 1 0
BITMAP
3FE0
3FE0
C018
C018
C318
C318
CD98
CD98
CD98
C3E0
C3E0
3000
3000
0FE0
0FE0
ENDCHAR
STARTCHAR A
ENCODING 65
SWIDTH 530 0
DWIDTH 13 0
BBX 11 15 1 0
BITMAP
0F00
0F00
0F00
0F00
3180
3180
3180
3F80
3F80
C060
C060
C060
C060
C060
C060
ENDCHAR
STARTCHAR B
ENCODING 66
SWIDTH 456 0
DWIDTH 11 0
BBX 9 15 1 0
BITMAP
FF00
FF00
C180
C180
C180
C180
FF00
FF80
C180
C180
C180
C180
C180
FF00
FF00
ENDCHAR
STARTCHAR C
ENCODING 67
SWIDTH 456 0
DWIDTH 11 0
BBX 9 15 1 0
BITMAP
3F00
3F00
C180
C180
C000
C000
C000
C000
C000
C000
C000
C180
C180
3F00
3F00
ENDCHAR
STARTCHAR D
ENCODING 68
SWIDTH 456 0
DWIDTH 11 0
BBX 9 15 1 0
BITMAP
FC00
FC00
C300
C300
C180
C180
C180
C180
C180
C180
C180
C300
C300
FC00
FC00
ENDCHAR
STARTCHAR E
ENCODING 69
SWIDTH 377 0
DWIDTH 9 0
BBX 8 15 1 0
BITMAP
FF
FF
C0
C0
C0
C0
FF
FF
C0
C0
C0
C0
C0
FF
FF
ENDCHAR
STARTCHAR F
ENCODING 70
SWIDTH 360 0
DWIDTH 9 0
BBX 8 15 1 0
BITMAP
FF
FF
C0
C0
C0
C0
FC
FC
C0
C0
C0
C0
C0
C0
C0
ENDCHAR
STARTCHAR G
ENCODING 71
SWIDTH 456 0
DWIDTH 11 0
BBX 9 15 1 0
BITMAP
3F00
3F00
C180
C180
C000
C000
CF80
CF80
C180
C180
C180
C380
C380
3D80
3D80
ENDCHAR
STARTCHAR H
ENCODING 72
SWIDTH 456 0
DWIDTH 11 0
BBX 9 15 1 0
BITMAP
C180
C180
C180
C180
C180
C180
FF80
FF80
C180
C180
C180
C180
C180
C180
C180
ENDCHAR
STARTCHAR I
ENCODING 73
SWIDTH 160 0
DWIDTH 4 0
BBX 2 15 1 0
BITMAP
C0
C0
C0
C0
C0
C0
C0
C0
C0
C0
C0
C0
C0
C0
C0
ENDCHAR
STARTCHAR J
ENCODING 74
SWIDTH 368 0
DWIDTH 9 0
BBX 7 15 1 0
BITMAP
06
06
06
06
06
06
06
06
06
C6
C6
C6
C6
78
78
ENDCHAR
STARTCHAR K
ENCODING 75
SWIDTH 438 0
DWIDTH 11 0
BBX 9 15 1 0
BITMAP
C300
C300
CC00
CC00
F000
F000
CC00
CC00
CC00
C300
C300
C300
C300
C180
C180
ENDCHAR
STARTCHAR L
ENCODING 76
SWIDTH 355 0
DWIDTH 9 0
BBX 8 15 1 0
BITMAP
C0
C0
C0
C0
C0
C0
C0
C0
C0
C0
C0
C0
C0
FF
FF
ENDCHAR
STARTCHAR M
ENCODING 77
SWIDTH 604 0
DWIDTH 15 0
BBX 13 15 1 0
BITMAP
C018
C018
C018
C018
F078
F078
F078
FDF8
CD98
CD98
CD98
C318
C318
C318
C318
ENDCHAR
STARTCHAR N
ENCODING 78
SWIDTH 456 0
DWIDTH 11 0
BBX 9 15 1 0
BITMAP
C180
C180
F180
F180
F180
F180
CD80
CD80
CD80
C380
C380
C380
C380
C180
C180
ENDCHAR
STARTCHAR O
ENCODING 79
SWIDTH 456 0
DWIDTH 11 0
BBX 9 15 1 0
BITMAP
3F00
3F00
C180
C180
C180
C180
C180
C180
C180
C180
C180
C180
C180
3F00
3F00
ENDCHAR
STARTCHAR P
ENCODING 80
SWIDTH 456 0
DWIDTH 11 0
BBX 9 15 1 0
BITMAP
FF00
FF00
C180
C180
C180
C180
FF00
FF00
C000
C000
C000
C000
C000
C000
C000
ENDCHAR
STARTCHAR Q
ENCODING 81
SWIDTH 456 0
DWIDTH 11 0
BBX 9 15 1 0
BITMAP
3F00
3F00
C180
C180
C180
C180
C180
C180
C180
CD80
CD80
C300
C300
3D80
3D80
ENDCHAR
STARTCHAR R
ENCODING 82
SWIDTH 456 0
DWIDTH 11 0
BBX 9 15 1 0
BITMAP
FF00
FF00
C180
C180
C180
C180
FF00
FF00
C300
C300
C300
C180
C180
C180
C180
ENDCHAR
STARTCHAR S
ENCODING 83
SWIDTH 456 0
DWIDTH 11 0
BBX 9 15 1 0
BITMAP
3F00
3F00
C180
C180
C000
C000
3F00
3F80
0180
C180
C180
C180
C180
3F00
3F00
ENDCHAR
STARTCHAR T
ENCODING 84
SWIDTH 409 0
DWIDTH 10 0
BBX 10 15 0 0
BITMAP
FFC0
FFC0
0C00
0C00
0C00
0C00
0C00
0C00
0C00
0C00
0C00
0C00
0C00
0C00
0C00
ENDCHAR
STARTCHAR U
ENCODING 85
SWIDTH 456 0
DWIDTH 11 0
BBX 9 15 1 0
BITMAP
C180
C180
C180
C180
C180
C180
C180
C180
C180
C180
C180
C180
C180
3F00
3F00
ENDCHAR
STARTCHAR V
ENCODING 86
SWIDTH 530 0
DWIDTH 13 0
BBX 11 15 1 0
BITMAP
C060
C060
C060
C060
C060
C060
3180
3180
3180
3180
3180
0F00
0F00
0F00
0F00
ENDCHAR
STARTCHAR W
ENCODING 87
SWIDTH 604 0
DWIDTH 15 0
BBX 13 15 1 0
BITMAP
C318
C318
C318
C318
C318
C318
3360
3360
3360
3360
3360
0D80
0D80
0D80
0D80
ENDCHAR
STARTCHAR X
ENCODING 88
SWIDTH 456 0
DWIDTH 11 0
BBX 9 15 1 0
BITMAP
C180
C180
3300
3300
3300
3300
0C00
3F00
3300
3300
3300
C180
C180
C180
C180
ENDCHAR
STARTCHAR Y
ENCODING 89
SWIDTH 456 0
DWIDTH 11 0
BBX 9 15 1 0
BITMAP
C180
C180
3300
3300
3300
3300
0C00
0C00
0C00
0C00
0C00
0C00
0C00
0C00
0C00
ENDCHAR
STARTCHAR Z
ENCODING 90
SWIDTH 382 0
DWIDTH 10 0
BBX 8 15 1 0
BITMAP
FF
FF
03
03
0C
0C
0C
3C
30
30
30
C0
C0
FF
FF
ENDCHAR
STARTCHAR bracketleft
ENCODING 91
SWIDTH 234 0
DWIDTH 6 0
BBX 4 15 1 0
BITMAP
F0
F0
C0
C0
C0
C0
C0
C0
C0
C0
C0
C0
C0
F0
F0
ENDCHAR
STARTCHAR backslash
ENCODING 92
SWIDTH 382 0
DWIDTH 10 0
BBX 8 15 1 0
BITMAP
C0
C0
C0
C0
30
30
30
3C
0C
0C
0C
03
03
03
03
ENDCHAR
STARTCHAR bracketright
ENCODING 93
SWIDTH 234 0
DWIDTH 6 0
BBX 4 15 1 0
BITMAP
F0
F0
30
30
30
30
30
30
30
30
30
30
30
F0
F0
ENDCHAR
STARTCHAR asciicircum
ENCODING 94
SWIDTH 456 0
DWIDTH 11 0
BBX 9 6 1 7
BITMAP
0C00
0C00
3300
3300
C180
C180
ENDCHAR
STARTCHAR underscore
ENCODING 95
SWIDTH 456 0
DWIDTH 11 0
BBX 9 2 1 -2
BITMAP
FF80
FF80
ENDCHAR
STARTCHAR grave
ENCODING 96
SWIDTH 234 0
DWIDTH 6 0
BBX 4 4 2 13
BITMAP
C0
C0
30
30
ENDCHAR
STARTCHAR a
ENCODING 97
SWIDTH 442 0
DWIDTH 11 0
BBX 9 11 1 0
BITMAP
3C00
3C00
0600
3E00
3E00
C600
C600
C600
C600
3D80
3D80
ENDCHAR
STARTCHAR b
ENCODING 98
SWIDTH 378 0
DWIDTH 9 0
BBX 8 15 1 0
BITMAP
C0
C0
C0
C0
FC
FC
C3
C3
C3
C3
C3
C3
C3
FC
FC
ENDCHAR
STARTCHAR c
ENCODING 99
SWIDTH 375 0
DWIDTH 9 0
BBX 8 11 1 0
BITMAP
3C
3C
C3
C3
C0
C0
C0
C3
C3
3C
3C
ENDCHAR
STARTCHAR d
ENCODING 100
SWIDTH 378 0
DWIDTH 9 0
BBX 7 15 1 0
BITMAP
06
06
06
06
3E
3E
C6
C6
C6
C6
C6
C6
C6
3E
3E
ENDCHAR
STARTCHAR e
ENCODING 101
SWIDTH 382 0
DWIDTH 10 0
BBX 8 11 1 0
BITMAP
3C
3C
C3
FF
FF
C0
C0
C3
C3
3C
3C
ENDCHAR
STARTCHAR f
ENCODING 102
SWIDTH 295 0
DWIDTH 7 0
BBX 6 15 1 0
BITMAP
0C
0C
30
30
FC
FC
30
30
30
30
30
30
30
30
30
ENDCHAR
STARTCHAR g
ENCODING 103
SWIDTH 378 0
DWIDTH 9 0
BBX 7 17 1 -6
BITMAP
3E
3E
C6
C6
C6
C6
C6
C6
C6
3E
3E
06
06
C6
C6
3C
3C
ENDCHAR
STARTCHAR h
ENCODING 104
SWIDTH 380 0
DWIDTH 10 0
BBX 8 15 1 0
BITMAP
C0
C0
C0
C0
FC
FC
C3
C3
C3
C3
C3
C3
C3
C3
C3
ENDCHAR
STARTCHAR i
ENCODING 105
SWIDTH 170 0
DWIDTH 4 0
BBX 2 15 1 0
BITMAP
C0
C0
00
00
C0
C0
C0
C0
C0
C0
C0
C0
C0
C0
C0
ENDCHAR
STARTCHAR j
ENCODING 106
SWIDTH 206 0
DWIDTH 5 0
BBX 4 21 0 -6
BITMAP
30
30
00
00
30
30
30
30
30
30
30
30
30
30
30
30
30
30
30
C0
C0
ENDCHAR
STARTCHAR k
ENCODING 107
SWIDTH 375 0
DWIDTH 9 0
BBX 8 15 1 0
BITMAP
C0
C0
C0
C0
C3
C3
CC
FC
F0
F0
F0
CC
CC
C3
C3
ENDCHAR
STARTCHAR l
ENCODING 108
SWIDTH 160 0
DWIDTH 4 0
BBX 2 15 1 0
BITMAP
C0
C0
C0
C0
C0
C0
C0
C0
C0
C0
C0
C0
C0
C0
C0
ENDCHAR
STARTCHAR m
ENCODING 109
SWIDTH 602 0
DWIDTH 15 0
BBX 13 11 1 0
BITMAP
FDE0
FDE0
C318
C318
C318
C318
C318
C318
C318
C318
C318
ENDCHAR
STARTCHAR n
ENCODING 110
SWIDTH 380 0
DWIDTH 10 0
BBX 8 11 1 0
BITMAP
FC
FC
C3
C3
C3
C3
C3
C3
C3
C3
C3
ENDCHAR
STARTCHAR o
ENCODING 111
SWIDTH 373 0
DWIDTH 9 0
BBX 7 11 1 0
BITMAP
3C
3C
C6
C6
C6
C6
C6
C6
C6
3C
3C
ENDCHAR
STARTCHAR p
ENCODING 112
SWIDTH 375 0
DWIDTH 9 0
BBX 8 17 1 -6
BITMAP
FC
FC
C3
C3
C3
C3
C3
C3
C3
FC
FC
C0
C0
C0
C0
C0
C0
ENDCHAR
STARTCHAR q
ENCODING 113
SWIDTH 375 0
DWIDTH 9 0
BBX 7 17 1 -6
BITMAP
3E
3E
C6
C6
C6
C6
C6
C6
C6
3E
3E
06
06
06
06
06
06
ENDCHAR
STARTCHAR r
ENCODING 114
SWIDTH 292 0
DWIDTH 7 0
BBX 6 11 1 0
BITMAP
CC
CC
F0
F0
C0
C0
C0
C0
C0
C0
C0
ENDCHAR
STARTCHAR s
ENCODING 115
SWIDTH 372 0
DWIDTH 9 0
BBX 8 11 1 0
BITMAP
3C
3C
C0
FC
3C
07
07
07
07
FC
FC
ENDCHAR
STARTCHAR t
ENCODING 116
SWIDTH 284 0
DWIDTH 7 0
BBX 5 15 1 0
BITMAP
60
60
60
60
F8
F8
60
60
60
60
60
60
60
18
18
ENDCHAR
STARTCHAR u
ENCODING 117
SWIDTH 378 0
DWIDTH 9 0
BBX 7 11 1 0
BITMAP
C6
C6
C6
C6
C6
C6
C6
C6
C6
3E
3E
ENDCHAR
STARTCHAR v
ENCODING 118
SWIDTH 430 0
DWIDTH 11 0
BBX 9 11 1 0
BITMAP
C180
C180
C180
E780
6600
6600
6600
1800
1800
1800
1800
ENDCHAR
STARTCHAR w
ENCODING 119
SWIDTH 576 0
DWIDTH 14 0
BBX 13 11 1 0
BITMAP
C018
C018
C018
E678
6660
6660
6660
1980
1980
1980
1980
ENDCHAR
STARTCHAR x
ENCODING 120
SWIDTH 382 0
DWIDTH 10 0
BBX 8 11 1 0
BITMAP
C3
C3
C3
FF
3C
C3
C3
C3
C3
C3
C3
ENDCHAR
STARTCHAR y
ENCODING 121
SWIDTH 378 0
DWIDTH 9 0
BBX 7 17 1 -6
BITMAP
C6
C6
C6
C6
C6
C6
C6
C6
C6
3E
3E
06
06
C6
C6
3C
3C
ENDCHAR
STARTCHAR z
ENCODING 122
SWIDTH 366 0
DWIDTH 9 0
BBX 7 11 1 0
BITMAP
FE
FE
06
1E
18
30
30
C0
C0
FE
FE
ENDCHAR
STARTCHAR braceleft
ENCODING 123
SWIDTH 308 0
DWIDTH 8 0
BBX 6 17 1 -2
BITMAP
0C
0C
30
30
30
30
30
F0
C0
30
30
30
30
30
30
0C
0C
ENDCHAR
STARTCHAR bar
ENCODING 124
SWIDTH 230 0
DWIDTH 6 0
BBX 2 23 2 -6
BITMAP
C0
C0
C0
C0
C0
C0
C0
C0
C0
C0
C0
C0
C0
C0
C0
C0
C0
C0
C0
C0
C0
C0
C0
ENDCHAR
STARTCHAR braceright
ENCODING 125
SWIDTH 308 0
DWIDTH 8 0
BBX 6 17 1 -2
BITMAP
C0
C0
30
30
30
30
30
3C
0C
30
30
30
30
30
30
C0
C0
ENDCHAR
STARTCHAR asciitilde
ENCODING 126
SWIDTH 456 0
DWIDTH 11 0
BBX 9 3 1 6
BITMAP
3D80
FF80
CF00
ENDCHAR
STARTCHAR nonbreakingspace
ENCODING 160
SWIDTH 184 0
DWIDTH 5 0
BBX 1 1 0 0
BITMAP
00
ENDCHAR
STARTCHAR exclamdown
ENCODING 161
SWIDTH 171 0
DWIDTH 4 0
BBX 2 15 1 -4
BITMAP
C0
C0
00
C0
C0
C0
C0
C0
C0
C0
C0
C0
C0
C0
C0
ENDCHAR
STARTCHAR cent
ENCODING 162
SWIDTH 456 0
DWIDTH 11 0
BBX 9 15 1 0
BITMAP
0C00
0C00
3F00
3F00
CD80
CD80
CC00
CC00
CC00
CD80
CD80
3F00
3F00
0C00
0C00
ENDCHAR
STARTCHAR sterling
ENCODING 163
SWIDTH 382 0
DWIDTH 10 0
BBX 8 15 1 0
BITMAP
0F
0F
30
30
30
30
FC
FC
30
30
30
30
30
CF
CF
ENDCHAR
STARTCHAR currency
ENCODING 164
SWIDTH 604 0
DWIDTH 15 0
BBX 13 13 1 0
BITMAP
C018
C018
3FE0
3FE0
3060
3060
3060
3060
3060
3FE0
3FE0
C018
C018
ENDCHAR
STARTCHAR yen
ENCODING 165
SWIDTH 456 0
DWIDTH 11 0
BBX 9 15 1 0
BITMAP
C180
C180
3300
3300
3300
3300
0C00
FF80
FF80
0C00
0C00
FF80
FF80
0C00
0C00
ENDCHAR
STARTCHAR brokenbar
ENCODING 166
SWIDTH 230 0
DWIDTH 6 0
BBX 2 23 2 -6
BITMAP
C0
C0
C0
C0
C0
C0
C0
C0
C0
C0
00
00
00
C0
C0
C0
C0
C0
C0
C0
C0
C0
C0
ENDCHAR
STARTCHAR section
ENCODING 167
SWIDTH 382 0
DWIDTH 10 0
BBX 8 19 1 -4
BITMAP
3C
3C
C0
C0
C0
C0
3C
FF
C3
C3
C3
3C
3C
03
03
03
03
3C
3C
ENDCHAR
STARTCHAR dieresis
ENCODING 168
SWIDTH 308 0
DWIDTH 8 0
BBX 6 2 1 13
BITMAP
CC
CC
ENDCHAR
STARTCHAR copyright
ENCODING 169
SWIDTH 604 0
DWIDTH 15 0
BBX 13 15 1 0
BITMAP
3FE0
3FE0
C018
C018
C398
C398
CC18
CC18
CC18
C398
C398
C018
C018
3FE0
3FE0
ENDCHAR
STARTCHAR ordfeminine
ENCODING 170
SWIDTH 456 0
DWIDTH 11 0
BBX 9 9 1 4
BITMAP
3C00
3C00
0300
0300
3F00
FF00
C300
3D80
3D80
ENDCHAR
STARTCHAR guillemotleft
ENCODING 171
SWIDTH 558 0
DWIDTH 14 0
BBX 12 9 1 2
BITMAP
1830
1830
70C0
F1C0
C180
70C0
70C0
1830
1830
ENDCHAR
STARTCHAR logicalnot
ENCODING 172
SWIDTH 456 0
DWIDTH 11 0
BBX 9 6 1 2
BITMAP
FF80
FF80
0180
0180
0180
0180
ENDCHAR
STARTCHAR registered
ENCODING 174
SWIDTH 604 0
DWIDTH 15 0
BBX 13 15 1 0
BITMAP
3FE0
3FE0
C018
C018
CF98
CF98
CF98
CF98
CF18
CD98
CD98
C018
C018
3FE0
3FE0
ENDCHAR
STARTCHAR macron
ENCODING 175
SWIDTH 382 0
DWIDTH 10 0
BBX 8 2 1 13
BITMAP
FF
FF
ENDCHAR
STARTCHAR degree
ENCODING 176
SWIDTH 382 0
DWIDTH 10 0
BBX 8 8 1 9
BITMAP
3C
3C
C3
C3
C3
C3
3C
3C
ENDCHAR
STARTCHAR plusminus
ENCODING 177
SWIDTH 456 0
DWIDTH 11 0
BBX 9 13 1 -2
BITMAP
0C00
0C00
0C00
FF80
FF80
0C00
0C00
0C00
0C00
0000
0000
FF80
FF80
ENDCHAR
STARTCHAR twosuperior
ENCODING 178
SWIDTH 322 0
DWIDTH 8 0
BBX 6 9 1 7
BITMAP
78
FC
CC
18
60
60
C0
FC
FC
ENDCHAR
STARTCHAR threesuperior
ENCODING 179
SWIDTH 322 0
DWIDTH 8 0
BBX 6 9 1 7
BITMAP
78
CC
CC
1C
18
0C
CC
78
78
ENDCHAR
STARTCHAR acute
ENCODING 180
SWIDTH 234 0
DWIDTH 6 0
BBX 4 4 0 13
BITMAP
30
30
C0
C0
ENDCHAR
STARTCHAR paragraph
ENCODING 182
SWIDTH 456 0
DWIDTH 11 0
BBX 9 17 1 -2
BITMAP
3F80
3F80
FD80
FD80
3D80
3D80
0D80
0D80
0D80
0D80
0D80
0D80
0D80
0D80
0D80
0D80
0D80
ENDCHAR
STARTCHAR periodcentered
ENCODING 183
SWIDTH 160 0
DWIDTH 4 0
BBX 2 2 1 6
BITMAP
C0
C0
ENDCHAR
STARTCHAR cedilla
ENCODING 184
SWIDTH 234 0
DWIDTH 6 0
BBX 4 4 1 -6
BITMAP
30
30
C0
C0
ENDCHAR
STARTCHAR onesuperior
ENCODING 185
SWIDTH 203 0
DWIDTH 5 0
BBX 3 9 1 7
BITMAP
60
E0
E0
60
60
60
60
60
60
ENDCHAR
STARTCHAR ordmasculine
ENCODING 186
SWIDTH 382 0
DWIDTH 10 0
BBX 8 9 1 4
BITMAP
3C
3C
C3
C3
C3
C3
C3
3C
3C
ENDCHAR
STARTCHAR guillemotright
ENCODING 187
SWIDTH 558 0
DWIDTH 14 0
BBX 12 9 1 2
BITMAP
C180
C180
70C0
78F0
1830
70C0
70C0
C180
C180
ENDCHAR
STARTCHAR onequarter
ENCODING 188
SWIDTH 782 0
DWIDTH 20 0
BBX 18 17 1 -1
BITMAP
600000
E06000
E06000
606000
606000
618000
618000
618000
678300
060700
060700
061B00
181B00
183FC0
180300
180300
000300
ENDCHAR
STARTCHAR onehalf
ENCODING 189
SWIDTH 723 0
DWIDTH 18 0
BBX 16 17 1 -1
BITMAP
6000
E060
E060
6060
6060
6180
6180
6180
679E
063F
0633
0606
1818
1818
1830
183F
003F
ENDCHAR
STARTCHAR threequarters
ENCODING 190
SWIDTH 851 0
DWIDTH 21 0
BBX 19 17 1 -1
BITMAP
780000
CC1800
CC1800
1C1800
181800
0C6000
CC6000
786000
79E0C0
0181C0
0181C0
0186C0
0606C0
060FE0
0600C0
0600C0
0000C0
ENDCHAR
STARTCHAR questiondown
ENCODING 191
SWIDTH 382 0
DWIDTH 10 0
BBX 8 15 1 -4
BITMAP
0C
0C
00
0C
0C
0C
0C
30
30
C3
C3
C3
C3
3C
3C
ENDCHAR
STARTCHAR Agrave
ENCODING 192
SWIDTH 530 0
DWIDTH 13 0
BBX 11 21 1 0
BITMAP
0C00
0C00
0300
0300
0000
0000
0F00
0F00
0F00
0F00
3180
3180
3180
3F80
3F80
C060
C060
C060
C060
C060
C060
ENDCHAR
STARTCHAR Aacute
ENCODING 193
SWIDTH 530 0
DWIDTH 13 0
BBX 11 21 1 0
BITMAP
0300
0300
0C00
0C00
0000
0000
0F00
0F00
0F00
0F00
3180
3180
3180
3F80
3F80
C060
C060
C060
C060
C060
C060
ENDCHAR
STARTCHAR Acircumflex
ENCODING 194
SWIDTH 530 0
DWIDTH 13 0
BBX 11 21 1 0
BITMAP
0600
0600
1B00
1B00
0000
0000
0F00
0F00
0F00
0F00
3180
3180
3180
3F80
3F80
C060
C060
C060
C060
C060
C060
ENDCHAR
STARTCHAR Atilde
ENCODING 195
SWIDTH 530 0
DWIDTH 13 0
BBX 11 21 1 0
BITMAP
0D80
0D80
3300
3300
0000
0000
0F00
0F00
0F00
0F00
3180
3180
3180
3F80
3F80
C060
C060
C060
C060
C060
C060
ENDCHAR
STARTCHAR Adieresis
ENCODING 196
SWIDTH 530 0
DWIDTH 13 0
BBX 11 19 1 0
BITMAP
1B00
1B00
0000
0000
0F00
0F00
0F00
0F00
3180
3180
3180
3F80
3F80
C060
C060
C060
C060
C060
C060
ENDCHAR
STARTCHAR Aring
ENCODING 197
SWIDTH 530 0
DWIDTH 13 0
BBX 11 23 1 0
BITMAP
0600
0600
1B00
1B00
0600
0600
0000
0000
0F00
0F00
0F00
0F00
3180
3180
3180
3F80
3F80
C060
C060
C060
C060
C060
C060
ENDCHAR
STARTCHAR AE
ENCODING 198
SWIDTH 654 0
DWIDTH 16 0
BBX 15 15 1 0
BITMAP
07FE
07FE
0780
0780
1980
1980
19FE
7FFE
7F80
6180
6180
C180
C180
C1FE
C1FE
ENDCHAR
STARTCHAR Ccedilla
ENCODING 199
SWIDTH 456 0
DWIDTH 11 0
BBX 9 21 1 -6
BITMAP
3F00
3F00
C180
C180
C000
C000
C000
C000
C000
C000
C000
C180
C180
3F00
3F00
0000
0000
0C00
0C00
3000
3000
ENDCHAR
STARTCHAR Egrave
ENCODING 200
SWIDTH 377 0
DWIDTH 9 0
BBX 8 21 1 0
BITMAP
30
30
0C
0C
00
00
FF
FF
C0
C0
C0
C0
FF
FF
C0
C0
C0
C0
C0
FF
FF
ENDCHAR
STARTCHAR Eacute
ENCODING 201
SWIDTH 377 0
DWIDTH 9 0
BBX 8 21 1 0
BITMAP
0C
0C
30
30
00
00
FF
FF
C0
C0
C0
C0
FF
FF
C0
C0
C0
C0
C0
FF
FF
ENDCHAR
STARTCHAR Ecircumflex
ENCODING 202
SWIDTH 377 0
DWIDTH 9 0
BBX 8 21 1 0
BITMAP
18
18
66
66
00
00
FF
FF
C0
C0
C0
C0
FF
FF
C0
C0
C0
C0
C0
FF
FF
ENDCHAR
STARTCHAR Edieresis
ENCODING 203
SWIDTH 377 0
DWIDTH 9 0
BBX 8 19 1 0
BITMAP
66
66
00
00
FF
FF
C0
C0
C0
C0
FF
FF
C0
C0
C0
C0
C0
FF
FF
ENDCHAR
STARTCHAR Igrave
ENCODING 204
SWIDTH 160 0
DWIDTH 4 0
BBX 4 21 0 0
BITMAP
C0
C0
30
30
00
00
60
60
60
60
60
60
60
60
60
60
60
60
60
60
60
ENDCHAR
STARTCHAR Iacute
ENCODING 205
SWIDTH 160 0
DWIDTH 4 0
BBX 4 21 0 0
BITMAP
30
30
C0
C0
00
00
60
60
60
60
60
60
60
60
60
60
60
60
60
60
60
ENDCHAR
STARTCHAR Icircumflex
ENCODING 206
SWIDTH 160 0
DWIDTH 4 0
BBX 6 21 -1 0
BITMAP
30
30
CC
CC
00
00
30
30
30
30
30
30
30
30
30
30
30
30
30
30
30
ENDCHAR
STARTCHAR Idieresis
ENCODING 207
SWIDTH 160 0
DWIDTH 4 0
BBX 6 19 -1 0
BITMAP
CC
CC
00
00
30
30
30
30
30
30
30
30
30
30
30
30
30
30
30
ENDCHAR
STARTCHAR Eth
ENCODING 208
SWIDTH 488 0
DWIDTH 12 0
BBX 10 15 1 0
BITMAP
7E00
7E00
6300
6300
60C0
60C0
F8C0
F8C0
60C0
60C0
60C0
6300
6300
7E00
7E00
ENDCHAR
STARTCHAR Ntilde
ENCODING 209
SWIDTH 456 0
DWIDTH 11 0
BBX 9 21 1 0
BITMAP
1B00
1B00
6600
6600
0000
0000
C180
C180
F180
F180
F180
F180
CD80
CD80
CD80
C380
C380
C380
C380
C180
C180
ENDCHAR
STARTCHAR Ograve
ENCODING 210
SWIDTH 456 0
DWIDTH 11 0
BBX 9 21 1 0
BITMAP
1800
1800
0600
0600
0000
0000
3F00
3F00
C180
C180
C180
C180
C180
C180
C180
C180
C180
C180
C180
3F00
3F00
ENDCHAR
STARTCHAR Oacute
ENCODING 211
SWIDTH 456 0
DWIDTH 11 0
BBX 9 21 1 0
BITMAP
0600
0600
1800
1800
0000
0000
3F00
3F00
C180
C180
C180
C180
C180
C180
C180
C180
C180
C180
C180
3F00
3F00
ENDCHAR
STARTCHAR Ocircumflex
ENCODING 212
SWIDTH 456 0
DWIDTH 11 0
BBX 9 21 1 0
BITMAP
0C00
0C00
3300
3300
0000
0000
3F00
3F00
C180
C180
C180
C180
C180
C180
C180
C180
C180
C180
C180
3F00
3F00
ENDCHAR
STARTCHAR Otilde
ENCODING 213
SWIDTH 456 0
DWIDTH 11 0
BBX 9 21 1 0
BITMAP
1B00
1B00
6600
6600
0000
0000
3F00
3F00
C180
C180
C180
C180
C180
C180
C180
C180
C180
C180
C180
3F00
3F00
ENDCHAR
STARTCHAR Odieresis
ENCODING 214
SWIDTH 456 0
DWIDTH 11 0
BBX 9 19 1 0
BITMAP
3300
3300
0000
0000
3F00
3F00
C180
C180
C180
C180
C180
C180
C180
C180
C180
C180
C180
3F00
3F00
ENDCHAR
STARTCHAR multiply
ENCODING 215
SWIDTH 456 0
DWIDTH 11 0
BBX 9 9 1 2
BITMAP
C180
C180
3300
3F00
0C00
3300
3300
C180
C180
ENDCHAR
STARTCHAR Oslash
ENCODING 216
SWIDTH 456 0
DWIDTH 11 0
BBX 9 19 1 -2
BITMAP
0180
0180
3F00
3F00
C380
C380
C380
C380
CD80
CD80
CD80
F180
F180
F180
F180
3F00
3F00
C000
C000
ENDCHAR
STARTCHAR Ugrave
ENCODING 217
SWIDTH 456 0
DWIDTH 11 0
BBX 9 21 1 0
BITMAP
1800
1800
0600
0600
0000
0000
C180
C180
C180
C180
C180
C180
C180
C180
C180
C180
C180
C180
C180
3F00
3F00
ENDCHAR
STARTCHAR Uacute
ENCODING 218
SWIDTH 456 0
DWIDTH 11 0
BBX 9 21 1 0
BITMAP
0600
0600
1800
1800
0000
0000
C180
C180
C180
C180
C180
C180
C180
C180
C180
C180
C180
C180
C180
3F00
3F00
ENDCHAR
STARTCHAR Ucircumflex
ENCODING 219
SWIDTH 456 0
DWIDTH 11 0
BBX 9 21 1 0
BITMAP
0C00
0C00
3300
3300
0000
0000
C180
C180
C180
C180
C180
C180
C180
C180
C180
C180
C180
C180
C180
3F00
3F00
ENDCHAR
STARTCHAR Udieresis
ENCODING 220
SWIDTH 456 0
DWIDTH 11 0
BBX 9 19 1 0
BITMAP
3300
3300
0000
0000
C180
C180
C180
C180
C180
C180
C180
C180
C180
C180
C180
C180
C180
3F00
3F00
ENDCHAR
STARTCHAR Yacute
ENCODING 221
SWIDTH 456 0
DWIDTH 11 0
BBX 9 21 1 0
BITMAP
0600
0600
1800
1800
0000
0000
C180
C180
3300
3300
3300
3300
0C00
0C00
0C00
0C00
0C00
0C00
0C00
0C00
0C00
ENDCHAR
STARTCHAR Thorn
ENCODING 222
SWIDTH 362 0
DWIDTH 9 0
BBX 8 15 1 0
BITMAP
C0
C0
C0
C0
FC
FC
C3
C3
C3
FC
FC
C0
C0
C0
C0
ENDCHAR
STARTCHAR germandbls
ENCODING 223
SWIDTH 382 0
DWIDTH 10 0
BBX 8 15 1 0
BITMAP
3C
3C
C3
C3
CC
CC
C3
C3
C3
C3
C3
C3
C3
CC
CC
ENDCHAR
STARTCHAR agrave
ENCODING 224
SWIDTH 442 0
DWIDTH 11 0
BBX 9 17 1 0
BITMAP
1800
1800
0C00
0C00
0000
0000
3C00
3C00
0600
3E00
3E00
C600
C600
C600
C600
3D80
3D80
ENDCHAR
STARTCHAR aacute
ENCODING 225
SWIDTH 442 0
DWIDTH 11 0
BBX 9 17 1 0
BITMAP
0C00
0C00
1800
1800
0000
0000
3C00
3C00
0600
3E00
3E00
C600
C600
C600
C600
3D80
3D80
ENDCHAR
STARTCHAR acircumflex
ENCODING 226
SWIDTH 442 0
DWIDTH 11 0
BBX 9 17 1 0
BITMAP
0C00
0C00
3600
3600
0000
0000
3C00
3C00
0600
3E00
3E00
C600
C600
C600
C600
3D80
3D80
ENDCHAR
STARTCHAR atilde
ENCODING 227
SWIDTH 442 0
DWIDTH 11 0
BBX 9 17 1 0
BITMAP
1B00
1B00
6C00
6C00
0000
0000
3C00
3C00
0600
3E00
3E00
C600
C600
C600
C600
3D80
3D80
ENDCHAR
STARTCHAR adieresis
ENCODING 228
SWIDTH 442 0
DWIDTH 11 0
BBX 9 15 1 0
BITMAP
3600
3600
0000
0000
3C00
3C00
0600
3E00
3E00
C600
C600
C600
C600
3D80
3D80
ENDCHAR
STARTCHAR aring
ENCODING 229
SWIDTH 442 0
DWIDTH 11 0
BBX 9 19 1 0
BITMAP
0C00
0C00
3600
3600
0C00
0C00
0000
0000
3C00
3C00
0600
3E00
3E00
C600
C600
C600
C600
3D80
3D80
ENDCHAR
STARTCHAR ae
ENCODING 230
SWIDTH 593 0
DWIDTH 15 0
BBX 13 11 1 0
BITMAP
3DE0
3DE0
0618
3FF8
3FF8
C600
C600
C618
C618
3DE0
3DE0
ENDCHAR
STARTCHAR ccedilla
ENCODING 231
SWIDTH 375 0
DWIDTH 9 0
BBX 8 17 1 -6
BITMAP
3C
3C
C3
C3
C0
C0
C0
C3
C3
3C
3C
00
00
18
18
60
60
ENDCHAR
STARTCHAR egrave
ENCODING 232
SWIDTH 382 0
DWIDTH 10 0
BBX 8 17 1 0
BITMAP
30
30
0C
0C
00
00
3C
3C
C3
FF
FF
C0
C0
C3
C3
3C
3C
ENDCHAR
STARTCHAR eacute
ENCODING 233
SWIDTH 382 0
DWIDTH 10 0
BBX 8 17 1 0
BITMAP
0C
0C
30
30
00
00
3C
3C
C3
FF
FF
C0
C0
C3
C3
3C
3C
ENDCHAR
STARTCHAR ecircumflex
ENCODING 234
SWIDTH 382 0
DWIDTH 10 0
BBX 8 17 1 0
BITMAP
18
18
66
66
00
00
3C
3C
C3
FF
FF
C0
C0
C3
C3
3C
3C
ENDCHAR
STARTCHAR edieresis
ENCODING 235
SWIDTH 382 0
DWIDTH 10 0
BBX 8 15 1 0
BITMAP
66
66
00
00
3C
3C
C3
FF
FF
C0
C0
C3
C3
3C
3C
ENDCHAR
STARTCHAR igrave
ENCODING 236
SWIDTH 169 0
DWIDTH 4 0
BBX 4 17 0 0
BITMAP
C0
C0
30
30
00
00
60
60
60
60
60
60
60
60
60
60
60
ENDCHAR
STARTCHAR iacute
ENCODING 237
SWIDTH 169 0
DWIDTH 4 0
BBX 4 17 0 0
BITMAP
30
30
C0
C0
00
00
60
60
60
60
60
60
60
60
60
60
60
ENDCHAR
STARTCHAR icircumflex
ENCODING 238
SWIDTH 169 0
DWIDTH 4 0
BBX 6 17 -1 0
BITMAP
30
30
CC
CC
00
00
30
30
30
30
30
30
30
30
30
30
30
ENDCHAR
STARTCHAR idieresis
ENCODING 239
SWIDTH 169 0
DWIDTH 4 0
BBX 6 15 -1 0
BITMAP
CC
CC
00
00
30
30
30
30
30
30
30
30
30
30
30
ENDCHAR
STARTCHAR eth
ENCODING 240
SWIDTH 456 0
DWIDTH 11 0
BBX 9 15 1 0
BITMAP
3D80
3D80
0300
0300
0180
0180
3F80
FF80
C180
C180
C180
C200
C200
3C00
3C00
ENDCHAR
STARTCHAR ntilde
ENCODING 241
SWIDTH 380 0
DWIDTH 10 0
BBX 8 17 1 0
BITMAP
33
33
CC
CC
00
00
FC
FC
C3
C3
C3
C3
C3
C3
C3
C3
C3
ENDCHAR
STARTCHAR ograve
ENCODING 242
SWIDTH 373 0
DWIDTH 9 0
BBX 7 17 1 0
BITMAP
30
30
0C
0C
00
00
3C
3C
C6
C6
C6
C6
C6
C6
C6
3C
3C
ENDCHAR
STARTCHAR oacute
ENCODING 243
SWIDTH 373 0
DWIDTH 9 0
BBX 7 17 1 0
BITMAP
0C
0C
30
30
00
00
3C
3C
C6
C6
C6
C6
C6
C6
C6
3C
3C
ENDCHAR
STARTCHAR ocircumflex
ENCODING 244
SWIDTH 373 0
DWIDTH 9 0
BBX 7 17 1 0
BITMAP
18
18
6E
6E
00
00
3C
3C
C6
C6
C6
C6
C6
C6
C6
3C
3C
ENDCHAR
STARTCHAR otilde
ENCODING 245
SWIDTH 373 0
DWIDTH 9 0
BBX 7 17 1 0
BITMAP
36
36
CC
CC
00
00
3C
3C
C6
C6
C6
C6
C6
C6
C6
3C
3C
ENDCHAR
STARTCHAR odieresis
ENCODING 246
SWIDTH 373 0
DWIDTH 9 0
BBX 7 15 1 0
BITMAP
6E
6E
00
00
3C
3C
C6
C6
C6
C6
C6
C6
C6
3C
3C
ENDCHAR
STARTCHAR divide
ENCODING 247
SWIDTH 456 0
DWIDTH 11 0
BBX 9 9 1 2
BITMAP
0C00
0C00
0000
FF80
FF80
0000
0000
0C00
0C00
ENDCHAR
STARTCHAR oslash
ENCODING 248
SWIDTH 382 0
DWIDTH 10 0
BBX 8 15 1 -2
BITMAP
03
03
3C
3C
CF
CF
CF
F3
F3
F3
F3
3C
3C
C0
C0
ENDCHAR
STARTCHAR ugrave
ENCODING 249
SWIDTH 378 0
DWIDTH 9 0
BBX 7 17 1 0
BITMAP
30
30
0C
0C
00
00
C6
C6
C6
C6
C6
C6
C6
C6
C6
3E
3E
ENDCHAR
STARTCHAR uacute
ENCODING 250
SWIDTH 378 0
DWIDTH 9 0
BBX 7 17 1 0
BITMAP
0C
0C
30
30
00
00
C6
C6
C6
C6
C6
C6
C6
C6
C6
3E
3E
ENDCHAR
STARTCHAR ucircumflex
ENCODING 251
SWIDTH 378 0
DWIDTH 9 0
BBX 7 17 1 0
BITMAP
18
18
66
66
00
00
C6
C6
C6
C6
C6
C6
C6
C6
C6
3E
3E
ENDCHAR
STARTCHAR udieresis
ENCODING 252
SWIDTH 378 0
DWIDTH 9 0
BBX 7 15 1 0
BITMAP
66
66
00
00
C6
C6
C6
C6
C6
C6
C6
C6
C6
3E
3E
ENDCHAR
STARTCHAR yacute
ENCODING 253
SWIDTH 378 0
DWIDTH 9 0
BBX 7 23 1 -6
BITMAP
0C
0C
30
30
00
00
C6
C6
C6
C6
C6
C6
C6
C6
C6
3E
3E
06
06
C6
C6
3C
3C
ENDCHAR
STARTCHAR thorn
ENCODING 254
SWIDTH 382 0
DWIDTH 10 0
BBX 8 21 1 -6
BITMAP
C0
C0
C0
C0
FC
FC
C3
C3
C3
C3
C3
C3
C3
FC
FC
C0
C0
C0
C0
C0
C0
ENDCHAR
STARTCHAR ydieresis
ENCODING 255
SWIDTH 378 0
DWIDTH 9 0
BBX 7 21 1 -6
BITMAP
66
66
00
00
C6
C6
C6
C6
C6
C6
C6
C6
C6
3E
3E
06
06
C6
C6
3C
3C
ENDCHAR
STARTCHAR Amacron
ENCODING 256
SWIDTH 530 0
DWIDTH 13 0
BBX 11 19 1 0
BITMAP
3F80
3F80
0000
0000
0F00
0F00
0F00
0F00
3180
3180
3180
3F80
3F80
C060
C060
C060
C060
C060
C060
ENDCHAR
STARTCHAR amacron
ENCODING 257
SWIDTH 442 0
DWIDTH 11 0
BBX 9 15 1 0
BITMAP
7F00
7F00
0000
0000
3C00
3C00
0600
3E00
3E00
C600
C600
C600
C600
3D80
3D80
ENDCHAR
STARTCHAR Abreve
ENCODING 258
SWIDTH 530 0
DWIDTH 13 0
BBX 11 21 1 0
BITMAP
3180
3180
0F00
0F00
0000
0000
0F00
0F00
0F00
0F00
3180
3180
3180
3F80
3F80
C060
C060
C060
C060
C060
C060
ENDCHAR
STARTCHAR abreve
ENCODING 259
SWIDTH 442 0
DWIDTH 11 0
BBX 9 17 1 0
BITMAP
6300
6300
1C00
1C00
0000
0000
3C00
3C00
0600
3E00
3E00
C600
C600
C600
C600
3D80
3D80
ENDCHAR
STARTCHAR Aogonek
ENCODING 260
SWIDTH 530 0
DWIDTH 13 0
BBX 11 21 1 -6
BITMAP
0F00
0F00
0F00
0F00
3180
3180
3180
3F80
3F80
C060
C060
C060
C060
C060
C060
0180
0180
0300
0300
01E0
01E0
ENDCHAR
STARTCHAR aogonek
ENCODING 261
SWIDTH 456 0
DWIDTH 11 0
BBX 9 17 1 -6
BITMAP
3C00
3C00
0300
3F00
3F00
C300
C300
C300
C300
3D80
3D80
0300
0300
0C00
0C00
0380
0380
ENDCHAR
STARTCHAR Cacute
ENCODING 262
SWIDTH 456 0
DWIDTH 11 0
BBX 9 21 1 0
BITMAP
0600
0600
1800
1800
0000
0000
3F00
3F00
C180
C180
C000
C000
C000
C000
C000
C000
C000
C180
C180
3F00
3F00
ENDCHAR
STARTCHAR cacute
ENCODING 263
SWIDTH 375 0
DWIDTH 9 0
BBX 8 17 1 0
BITMAP
0C
0C
30
30
00
00
3C
3C
C3
C3
C0
C0
C0
C3
C3
3C
3C
ENDCHAR
STARTCHAR Cdotaccent
ENCODING 266
SWIDTH 456 0
DWIDTH 11 0
BBX 9 19 1 0
BITMAP
0C00
0C00
0000
0000
3F00
3F00
C180
C180
C000
C000
C000
C000
C000
C000
C000
C180
C180
3F00
3F00
ENDCHAR
STARTCHAR cdotaccent
ENCODING 267
SWIDTH 375 0
DWIDTH 9 0
BBX 8 15 1 0
BITMAP
18
18
00
00
3C
3C
C3
C3
C0
C0
C0
C3
C3
3C
3C
ENDCHAR
STARTCHAR Ccaron
ENCODING 268
SWIDTH 456 0
DWIDTH 11 0
BBX 9 21 1 0
BITMAP
3300
3300
0C00
0C00
0000
0000
3F00
3F00
C180
C180
C000
C000
C000
C000
C000
C000
C000
C180
C180
3F00
3F00
ENDCHAR
STARTCHAR ccaron
ENCODING 269
SWIDTH 375 0
DWIDTH 9 0
BBX 8 17 1 0
BITMAP
6E
6E
18
18
00
00
3C
3C
C3
C3
C0
C0
C0
C3
C3
3C
3C
ENDCHAR
STARTCHAR Dcaron
ENCODING 270
SWIDTH 456 0
DWIDTH 11 0
BBX 9 21 1 0
BITMAP
3300
3300
0C00
0C00
0000
0000
FC00
FC00
C300
C300
C180
C180
C180
C180
C180
C180
C180
C300
C300
FC00
FC00
ENDCHAR
STARTCHAR dcaron
ENCODING 271
SWIDTH 547 0
DWIDTH 14 0
BBX 13 17 1 0
BITMAP
0018
0018
0618
0618
0660
0660
3E00
3E00
C600
C600
C600
C600
C600
C600
C600
3E00
3E00
ENDCHAR
STARTCHAR Dcroat
ENCODING 272
SWIDTH 488 0
DWIDTH 12 0
BBX 10 15 1 0
BITMAP
7E00
7E00
6300
6300
60C0
60C0
F8C0
F8C0
60C0
60C0
60C0
6300
6300
7E00
7E00
ENDCHAR
STARTCHAR dcroat
ENCODING 273
SWIDTH 406 0
DWIDTH 10 0
BBX 9 15 1 0
BITMAP
0600
0600
3F80
3F80
0600
0600
3E00
FE00
C600
C600
C600
C600
C600
3E00
3E00
ENDCHAR
STARTCHAR Emacron
ENCODING 274
SWIDTH 377 0
DWIDTH 9 0
BBX 8 19 1 0
BITMAP
FF
FF
00
00
FF
FF
C0
C0
C0
C0
FF
FF
C0
C0
C0
C0
C0
FF
FF
ENDCHAR
STARTCHAR emacron
ENCODING 275
SWIDTH 382 0
DWIDTH 10 0
BBX 8 15 1 0
BITMAP
FF
FF
00
00
3C
3C
C3
FF
FF
C0
C0
C3
C3
3C
3C
ENDCHAR
STARTCHAR Ebreve
ENCODING 276
SWIDTH 377 0
DWIDTH 9 0
BBX 8 21 1 0
BITMAP
C7
C7
3C
3C
00
00
FF
FF
C0
C0
C0
C0
FF
FF
C0
C0
C0
C0
C0
FF
FF
ENDCHAR
STARTCHAR ebreve
ENCODING 277
SWIDTH 382 0
DWIDTH 10 0
BBX 8 17 1 0
BITMAP
C3
C3
3C
3C
00
00
3C
3C
C3
FF
FF
C0
C0
C3
C3
3C
3C
ENDCHAR
STARTCHAR Edotaccent
ENCODING 278
SWIDTH 377 0
DWIDTH 9 0
BBX 8 19 1 0
BITMAP
18
18
00
00
FF
FF
C0
C0
C0
C0
FF
FF
C0
C0
C0
C0
C0
FF
FF
ENDCHAR
STARTCHAR edotaccent
ENCODING 279
SWIDTH 382 0
DWIDTH 10 0
BBX 8 15 1 0
BITMAP
18
18
00
00
3C
3C
C3
FF
FF
C0
C0
C3
C3
3C
3C
ENDCHAR
STARTCHAR Eogonek
ENCODING 280
SWIDTH 377 0
DWIDTH 9 0
BBX 8 21 1 -6
BITMAP
FF
FF
C0
C0
C0
C0
FF
FF
C0
C0
C0
C0
C0
FF
FF
0C
0C
30
30
0F
0F
ENDCHAR
STARTCHAR eogonek
ENCODING 281
SWIDTH 382 0
DWIDTH 10 0
BBX 8 17 1 -6
BITMAP
3C
3C
C3
FF
FF
C0
C0
C3
C3
3C
3C
0C
0C
30
30
0F
0F
ENDCHAR
STARTCHAR Ecaron
ENCODING 282
SWIDTH 377 0
DWIDTH 9 0
BBX 8 21 1 0
BITMAP
66
66
18
18
00
00
FF
FF
C0
C0
C0
C0
FF
FF
C0
C0
C0
C0
C0
FF
FF
ENDCHAR
STARTCHAR ecaron
ENCODING 283
SWIDTH 382 0
DWIDTH 10 0
BBX 8 17 1 0
BITMAP
66
66
18
18
00
00
3C
3C
C3
FF
FF
C0
C0
C3
C3
3C
3C
ENDCHAR
STARTCHAR Gbreve
ENCODING 286
SWIDTH 456 0
DWIDTH 11 0
BBX 9 21 1 0
BITMAP
6300
6300
1E00
1E00
0000
0000
3F00
3F00
C180
C180
C000
C000
CF80
CF80
C180
C180
C180
C380
C380
3D80
3D80
ENDCHAR
STARTCHAR gbreve
ENCODING 287
SWIDTH 378 0
DWIDTH 9 0
BBX 8 23 1 -6
BITMAP
C7
C7
3C
3C
00
00
3E
3E
C6
C6
C6
C6
C6
C6
C6
3E
3E
06
06
C6
C6
3C
3C
ENDCHAR
STARTCHAR Gdotaccent
ENCODING 288
SWIDTH 456 0
DWIDTH 11 0
BBX 9 19 1 0
BITMAP
0C00
0C00
0000
0000
3F00
3F00
C180
C180
C000
C000
CF80
CF80
C180
C180
C180
C380
C380
3D80
3D80
ENDCHAR
STARTCHAR gdotaccent
ENCODING 289
SWIDTH 378 0
DWIDTH 9 0
BBX 7 21 1 -6
BITMAP
18
18
00
00
3E
3E
C6
C6
C6
C6
C6
C6
C6
3E
3E
06
06
C6
C6
3C
3C
ENDCHAR
STARTCHAR Gcommaaccent
ENCODING 290
SWIDTH 456 0
DWIDTH 11 0
BBX 9 21 1 -6
BITMAP
3F00
3F00
C180
C180
C000
C000
CF80
CF80
C180
C180
C180
C380
C380
3D80
3D80
0000
0000
0C00
0C00
3000
3000
ENDCHAR
STARTCHAR gcommaaccent
ENCODING 291
SWIDTH 382 0
DWIDTH 10 0
BBX 8 23 1 -6
BITMAP
03
03
0C
0C
00
00
3F
3F
C3
C3
C3
C3
C3
C3
C3
3F
3F
03
03
C3
C3
3C
3C
ENDCHAR
STARTCHAR Hbar
ENCODING 294
SWIDTH 456 0
DWIDTH 11 0
BBX 9 15 1 0
BITMAP
C180
C180
FF80
FF80
C180
C180
FF80
FF80
C180
C180
C180
C180
C180
C180
C180
ENDCHAR
STARTCHAR hbar
ENCODING 295
SWIDTH 409 0
DWIDTH 10 0
BBX 9 15 0 0
BITMAP
3000
3000
FE00
FE00
3000
3000
3F00
3F80
3180
3180
3180
3180
3180
3180
3180
ENDCHAR
STARTCHAR Itilde
ENCODING 296
SWIDTH 160 0
DWIDTH 4 0
BBX 8 21 -2 0
BITMAP
33
33
CC
CC
00
00
18
18
18
18
18
18
18
18
18
18
18
18
18
18
18
ENDCHAR
STARTCHAR itilde
ENCODING 297
SWIDTH 169 0
DWIDTH 4 0
BBX 8 17 -2 0
BITMAP
33
33
CC
CC
00
00
18
18
18
18
18
18
18
18
18
18
18
ENDCHAR
STARTCHAR uni012A
ENCODING 298
SWIDTH 160 0
DWIDTH 4 0
BBX 8 19 -2 0
BITMAP
FF
FF
00
00
18
18
18
18
18
18
18
18
18
18
18
18
18
18
18
ENDCHAR
STARTCHAR imacron
ENCODING 299
SWIDTH 169 0
DWIDTH 4 0
BBX 8 15 -2 0
BITMAP
FF
FF
00
00
18
18
18
18
18
18
18
18
18
18
18
ENDCHAR
STARTCHAR Ibreve
ENCODING 300
SWIDTH 160 0
DWIDTH 4 0
BBX 8 21 -2 0
BITMAP
C3
C3
3C
3C
00
00
18
18
18
18
18
18
18
18
18
18
18
18
18
18
18
ENDCHAR
STARTCHAR ibreve
ENCODING 301
SWIDTH 169 0
DWIDTH 4 0
BBX 8 17 -2 0
BITMAP
C3
C3
3C
3C
00
00
18
18
18
18
18
18
18
18
18
18
18
ENDCHAR
STARTCHAR Iogonek
ENCODING 302
SWIDTH 160 0
DWIDTH 4 0
BBX 6 21 -1 -6
BITMAP
30
30
30
30
30
30
30
30
30
30
30
30
30
30
30
30
30
C0
C0
3C
3C
ENDCHAR
STARTCHAR iogonek
ENCODING 303
SWIDTH 160 0
DWIDTH 4 0
BBX 6 17 -1 -6
BITMAP
30
30
30
30
30
30
30
30
30
30
30
30
30
C0
C0
3C
3C
ENDCHAR
STARTCHAR Idotaccent
ENCODING 304
SWIDTH 160 0
DWIDTH 4 0
BBX 2 19 1 0
BITMAP
C0
C0
00
00
C0
C0
C0
C0
C0
C0
C0
C0
C0
C0
C0
C0
C0
C0
C0
ENDCHAR
STARTCHAR dotlessi
ENCODING 305
SWIDTH 169 0
DWIDTH 4 0
BBX 2 11 1 0
BITMAP
C0
C0
C0
C0
C0
C0
C0
C0
C0
C0
C0
ENDCHAR
STARTCHAR IJ
ENCODING 306
SWIDTH 500 0
DWIDTH 13 0
BBX 11 15 1 0
BITMAP
C0E0
C0E0
C0E0
C0E0
C0E0
C0E0
C0E0
C0E0
C0E0
D8E0
D8E0
D8E0
D8E0
C780
C780
ENDCHAR
STARTCHAR ij
ENCODING 307
SWIDTH 303 0
DWIDTH 8 0
BBX 6 21 1 -6
BITMAP
CC
CC
00
00
CC
CC
CC
CC
CC
CC
CC
CC
CC
CC
CC
0C
0C
0C
0C
30
30
ENDCHAR
STARTCHAR Kcommaaccent
ENCODING 310
SWIDTH 438 0
DWIDTH 11 0
BBX 9 21 1 -6
BITMAP
C300
C300
CC00
CC00
F000
F000
CC00
CC00
CC00
C300
C300
C300
C300
C180
C180
0000
0000
1800
1800
6000
6000
ENDCHAR
STARTCHAR kcommaaccent
ENCODING 311
SWIDTH 375 0
DWIDTH 9 0
BBX 8 21 1 -6
BITMAP
C0
C0
C0
C0
C3
C3
CC
FC
F0
F0
F0
CC
CC
C3
C3
00
00
0C
0C
30
30
ENDCHAR
STARTCHAR Lacute
ENCODING 313
SWIDTH 355 0
DWIDTH 9 0
BBX 9 21 0 0
BITMAP
3000
3000
C000
C000
0000
0000
6000
6000
6000
6000
6000
6000
6000
6000
6000
6000
6000
6000
6000
7F80
7F80
ENDCHAR
STARTCHAR lacute
ENCODING 314
SWIDTH 160 0
DWIDTH 4 0
BBX 4 21 0 0
BITMAP
30
30
C0
C0
00
00
60
60
60
60
60
60
60
60
60
60
60
60
60
60
60
ENDCHAR
STARTCHAR Lcommaaccent
ENCODING 315
SWIDTH 355 0
DWIDTH 9 0
BBX 8 21 1 -6
BITMAP
C0
C0
C0
C0
C0
C0
C0
C0
C0
C0
C0
C0
C0
FF
FF
00
00
18
18
60
60
ENDCHAR
STARTCHAR lcommaaccent
ENCODING 316
SWIDTH 160 0
DWIDTH 4 0
BBX 4 21 -1 -6
BITMAP
30
30
30
30
30
30
30
30
30
30
30
30
30
30
30
00
00
30
30
C0
C0
ENDCHAR
STARTCHAR Lcaron
ENCODING 317
SWIDTH 355 0
DWIDTH 9 0
BBX 8 15 1 0
BITMAP
C6
C6
D8
D8
C0
C0
C0
C0
C0
C0
C0
C0
C0
FF
FF
ENDCHAR
STARTCHAR lcaron
ENCODING 318
SWIDTH 298 0
DWIDTH 7 0
BBX 7 15 1 0
BITMAP
CE
CE
D8
D8
C0
C0
C0
C0
C0
C0
C0
C0
C0
C0
C0
ENDCHAR
STARTCHAR Ldot
ENCODING 319
SWIDTH 355 0
DWIDTH 9 0
BBX 8 15 1 0
BITMAP
C0
C0
C0
C0
C0
C0
D8
D8
C0
C0
C0
C0
C0
FF
FF
ENDCHAR
STARTCHAR ldot
ENCODING 320
SWIDTH 228 0
DWIDTH 6 0
BBX 5 15 1 0
BITMAP
C0
C0
C0
C0
C0
C0
F8
F8
C0
C0
C0
C0
C0
C0
C0
ENDCHAR
STARTCHAR Lslash
ENCODING 321
SWIDTH 396 0
DWIDTH 10 0
BBX 10 15 0 0
BITMAP
3000
3000
3000
3000
3300
3300
3C00
FC00
F000
3000
3000
3000
3000
3FC0
3FC0
ENDCHAR
STARTCHAR lslash
ENCODING 322
SWIDTH 247 0
DWIDTH 6 0
BBX 6 15 0 0
BITMAP
30
30
30
30
30
30
3C
FC
F0
30
30
30
30
30
30
ENDCHAR
STARTCHAR Nacute
ENCODING 323
SWIDTH 456 0
DWIDTH 11 0
BBX 9 21 1 0
BITMAP
0600
0600
1800
1800
0000
0000
C180
C180
F180
F180
F180
F180
CD80
CD80
CD80
C380
C380
C380
C380
C180
C180
ENDCHAR
STARTCHAR nacute
ENCODING 324
SWIDTH 380 0
DWIDTH 10 0
BBX 8 17 1 0
BITMAP
0C
0C
30
30
00
00
FC
FC
C3
C3
C3
C3
C3
C3
C3
C3
C3
ENDCHAR
STARTCHAR Ncommaaccent
ENCODING 325
SWIDTH 456 0
DWIDTH 11 0
BBX 9 21 1 -6
BITMAP
C180
C180
F180
F180
F180
F180
CD80
CD80
CD80
C380
C380
C380
C380
C180
C180
0000
0000
0C00
0C00
3000
3000
ENDCHAR
STARTCHAR ncommaaccent
ENCODING 326
SWIDTH 380 0
DWIDTH 10 0
BBX 8 17 1 -6
BITMAP
FC
FC
C3
C3
C3
C3
C3
C3
C3
C3
C3
00
00
18
18
60
60
ENDCHAR
STARTCHAR Ncaron
ENCODING 327
SWIDTH 456 0
DWIDTH 11 0
BBX 9 21 1 0
BITMAP
3300
3300
0C00
0C00
0000
0000
C180
C180
F180
F180
F180
F180
CD80
CD80
CD80
C380
C380
C380
C380
C180
C180
ENDCHAR
STARTCHAR ncaron
ENCODING 328
SWIDTH 380 0
DWIDTH 10 0
BBX 8 17 1 0
BITMAP
66
66
18
18
00
00
FC
FC
C3
C3
C3
C3
C3
C3
C3
C3
C3
ENDCHAR
STARTCHAR Eng
ENCODING 330
SWIDTH 456 0
DWIDTH 11 0
BBX 9 21 1 -6
BITMAP
C180
C180
F180
F180
F180
F180
CD80
CD80
CD80
C380
C380
C380
C380
C180
C180
0180
0180
0180
0180
0300
0300
ENDCHAR
STARTCHAR eng
ENCODING 331
SWIDTH 382 0
DWIDTH 10 0
BBX 8 17 1 -6
BITMAP
FC
FC
C3
C3
C3
C3
C3
C3
C3
C3
C3
03
03
03
03
0C
0C
ENDCHAR
STARTCHAR Omacron
ENCODING 332
SWIDTH 456 0
DWIDTH 11 0
BBX 9 19 1 0
BITMAP
7F00
7F00
0000
0000
3F00
3F00
C180
C180
C180
C180
C180
C180
C180
C180
C180
C180
C180
3F00
3F00
ENDCHAR
STARTCHAR omacron
ENCODING 333
SWIDTH 373 0
DWIDTH 9 0
BBX 7 15 1 0
BITMAP
FE
FE
00
00
3C
3C
C6
C6
C6
C6
C6
C6
C6
3C
3C
ENDCHAR
STARTCHAR Obreve
ENCODING 334
SWIDTH 456 0
DWIDTH 11 0
BBX 9 21 1 0
BITMAP
6300
6300
1E00
1E00
0000
0000
3F00
3F00
C180
C180
C180
C180
C180
C180
C180
C180
C180
C180
C180
3F00
3F00
ENDCHAR
STARTCHAR obreve
ENCODING 335
SWIDTH 373 0
DWIDTH 9 0
BBX 7 17 1 0
BITMAP
C6
C6
3C
3C
00
00
3C
3C
C6
C6
C6
C6
C6
C6
C6
3C
3C
ENDCHAR
STARTCHAR Ohungarumlaut
ENCODING 336
SWIDTH 456 0
DWIDTH 11 0
BBX 9 23 1 0
BITMAP
3180
3180
3180
3180
C300
C300
0000
0000
3F00
3F00
C180
C180
C180
C180
C180
C180
C180
C180
C180
C180
C180
3F00
3F00
ENDCHAR
STARTCHAR ohungarumlaut
ENCODING 337
SWIDTH 373 0
DWIDTH 9 0
BBX 9 19 0 0
BITMAP
3180
3180
3180
3180
C300
C300
0000
0000
1E00
1E00
6300
6300
6300
6300
6300
6300
6300
1E00
1E00
ENDCHAR
STARTCHAR OE
ENCODING 338
SWIDTH 666 0
DWIDTH 17 0
BBX 15 15 1 0
BITMAP
3FFE
3FFE
C180
C180
C180
C180
C1FE
C1FE
C180
C180
C180
C180
C180
3FFE
3FFE
ENDCHAR
STARTCHAR oe
ENCODING 339
SWIDTH 597 0
DWIDTH 15 0
BBX 13 11 1 0
BITMAP
3DE0
3DE0
C618
C7F8
C7F8
C600
C600
C618
C618
3DE0
3DE0
ENDCHAR
STARTCHAR Racute
ENCODING 340
SWIDTH 456 0
DWIDTH 11 0
BBX 9 21 1 0
BITMAP
0600
0600
1800
1800
0000
0000
FF00
FF00
C180
C180
C180
C180
FF00
FF00
C300
C300
C300
C180
C180
C180
C180
ENDCHAR
STARTCHAR racute
ENCODING 341
SWIDTH 292 0
DWIDTH 7 0
BBX 6 17 1 0
BITMAP
18
18
60
60
00
00
CC
CC
F0
F0
C0
C0
C0
C0
C0
C0
C0
ENDCHAR
STARTCHAR Rcommaaccent
ENCODING 342
SWIDTH 456 0
DWIDTH 11 0
BBX 9 21 1 -6
BITMAP
FF00
FF00
C180
C180
C180
C180
FF00
FF00
C300
C300
C300
C180
C180
C180
C180
0000
0000
1800
1800
3000
3000
ENDCHAR
STARTCHAR rcommaaccent
ENCODING 343
SWIDTH 292 0
DWIDTH 7 0
BBX 8 17 -1 -6
BITMAP
33
33
3C
3C
30
30
30
30
30
30
30
00
00
30
30
C0
C0
ENDCHAR
STARTCHAR Rcaron
ENCODING 344
SWIDTH 456 0
DWIDTH 11 0
BBX 9 21 1 0
BITMAP
3300
3300
0C00
0C00
0000
0000
FF00
FF00
C180
C180
C180
C180
FF00
FF00
C300
C300
C300
C180
C180
C180
C180
ENDCHAR
STARTCHAR rcaron
ENCODING 345
SWIDTH 292 0
DWIDTH 7 0
BBX 6 17 1 0
BITMAP
DC
DC
30
30
00
00
CC
CC
F0
F0
C0
C0
C0
C0
C0
C0
C0
ENDCHAR
STARTCHAR Sacute
ENCODING 346
SWIDTH 456 0
DWIDTH 11 0
BBX 9 21 1 0
BITMAP
0600
0600
1800
1800
0000
0000
3F00
3F00
C180
C180
C000
C000
3F00
3F80
0180
C180
C180
C180
C180
3F00
3F00
ENDCHAR
STARTCHAR sacute
ENCODING 347
SWIDTH 372 0
DWIDTH 9 0
BBX 8 17 1 0
BITMAP
0C
0C
30
30
00
00
3C
3C
C0
FC
3C
07
07
07
07
FC
FC
ENDCHAR
STARTCHAR Scedilla
ENCODING 350
SWIDTH 456 0
DWIDTH 11 0
BBX 9 21 1 -6
BITMAP
3F00
3F00
C180
C180
C000
C000
3F00
3F80
0180
C180
C180
C180
C180
3F00
3F00
0000
0000
0C00
0C00
3000
3000
ENDCHAR
STARTCHAR scedilla
ENCODING 351
SWIDTH 372 0
DWIDTH 9 0
BBX 8 17 1 -6
BITMAP
3C
3C
C0
FC
3C
07
07
07
07
FC
FC
00
00
30
30
C0
C0
ENDCHAR
STARTCHAR Scaron
ENCODING 352
SWIDTH 456 0
DWIDTH 11 0
BBX 9 21 1 0
BITMAP
3300
3300
0C00
0C00
0000
0000
3F00
3F00
C180
C180
C000
C000
3F00
3F80
0180
C180
C180
C180
C180
3F00
3F00
ENDCHAR
STARTCHAR scaron
ENCODING 353
SWIDTH 372 0
DWIDTH 9 0
BBX 8 17 1 0
BITMAP
6E
6E
18
18
00
00
3C
3C
C0
FC
3C
07
07
07
07
FC
FC
ENDCHAR
STARTCHAR Tcommaaccent
ENCODING 354
SWIDTH 409 0
DWIDTH 10 0
BBX 10 21 0 -6
BITMAP
FFC0
FFC0
0C00
0C00
0C00
0C00
0C00
0C00
0C00
0C00
0C00
0C00
0C00
0C00
0C00
0000
0000
0C00
0C00
3000
3000
ENDCHAR
STARTCHAR tcommaaccent
ENCODING 355
SWIDTH 284 0
DWIDTH 7 0
BBX 5 21 1 -6
BITMAP
60
60
60
60
F8
F8
60
60
60
60
60
60
60
18
18
00
00
60
60
C0
C0
ENDCHAR
STARTCHAR Tcaron
ENCODING 356
SWIDTH 409 0
DWIDTH 10 0
BBX 10 21 0 0
BITMAP
3300
3300
0C00
0C00
0000
0000
FFC0
FFC0
0C00
0C00
0C00
0C00
0C00
0C00
0C00
0C00
0C00
0C00
0C00
0C00
0C00
ENDCHAR
STARTCHAR tcaron
ENCODING 357
SWIDTH 427 0
DWIDTH 11 0
BBX 10 15 1 0
BITMAP
30C0
30C0
3300
3300
FC00
FC00
3000
3000
3000
3000
3000
3000
3000
0C00
0C00
ENDCHAR
STARTCHAR Tbar
ENCODING 358
SWIDTH 407 0
DWIDTH 10 0
BBX 10 15 0 0
BITMAP
FFC0
FFC0
0C00
0C00
0C00
0C00
3F00
3F00
0C00
0C00
0C00
0C00
0C00
0C00
0C00
ENDCHAR
STARTCHAR tbar
ENCODING 359
SWIDTH 308 0
DWIDTH 8 0
BBX 6 15 1 0
BITMAP
30
30
30
30
FC
FC
30
FC
FC
30
30
30
30
0C
0C
ENDCHAR
STARTCHAR Utilde
ENCODING 360
SWIDTH 456 0
DWIDTH 11 0
BBX 9 21 1 0
BITMAP
1B00
1B00
6600
6600
0000
0000
C180
C180
C180
C180
C180
C180
C180
C180
C180
C180
C180
C180
C180
3F00
3F00
ENDCHAR
STARTCHAR utilde
ENCODING 361
SWIDTH 378 0
DWIDTH 9 0
BBX 8 17 1 0
BITMAP
37
37
CC
CC
00
00
C6
C6
C6
C6
C6
C6
C6
C6
C6
3E
3E
ENDCHAR
STARTCHAR Umacron
ENCODING 362
SWIDTH 456 0
DWIDTH 11 0
BBX 9 19 1 0
BITMAP
7F00
7F00
0000
0000
C180
C180
C180
C180
C180
C180
C180
C180
C180
C180
C180
C180
C180
3F00
3F00
ENDCHAR
STARTCHAR umacron
ENCODING 363
SWIDTH 378 0
DWIDTH 9 0
BBX 8 15 1 0
BITMAP
FF
FF
00
00
C6
C6
C6
C6
C6
C6
C6
C6
C6
3E
3E
ENDCHAR
STARTCHAR Ubreve
ENCODING 364
SWIDTH 456 0
DWIDTH 11 0
BBX 9 21 1 0
BITMAP
6300
6300
1E00
1E00
0000
0000
C180
C180
C180
C180
C180
C180
C180
C180
C180
C180
C180
C180
C180
3F00
3F00
ENDCHAR
STARTCHAR ubreve
ENCODING 365
SWIDTH 378 0
DWIDTH 9 0
BBX 8 17 1 0
BITMAP
C7
C7
3C
3C
00
00
C6
C6
C6
C6
C6
C6
C6
C6
C6
3E
3E
ENDCHAR
STARTCHAR Uring
ENCODING 366
SWIDTH 456 0
DWIDTH 11 0
BBX 9 23 1 0
BITMAP
0C00
0C00
3300
3300
0C00
0C00
0000
0000
C180
C180
C180
C180
C180
C180
C180
C180
C180
C180
C180
C180
C180
3F00
3F00
ENDCHAR
STARTCHAR uring
ENCODING 367
SWIDTH 378 0
DWIDTH 9 0
BBX 7 19 1 0
BITMAP
18
18
66
66
18
18
00
00
C6
C6
C6
C6
C6
C6
C6
C6
C6
3E
3E
ENDCHAR
STARTCHAR Uhungarumlaut
ENCODING 368
SWIDTH 456 0
DWIDTH 11 0
BBX 9 23 1 0
BITMAP
3180
3180
3180
3180
C300
C300
0000
0000
C180
C180
C180
C180
C180
C180
C180
C180
C180
C180
C180
C180
C180
3F00
3F00
ENDCHAR
STARTCHAR uhungarumlaut
ENCODING 369
SWIDTH 378 0
DWIDTH 9 0
BBX 9 19 0 0
BITMAP
3180
3180
3180
3180
C300
C300
0000
0000
6300
6300
6300
6300
6300
6300
6300
6300
6300
1F00
1F00
ENDCHAR
STARTCHAR Uogonek
ENCODING 370
SWIDTH 456 0
DWIDTH 11 0
BBX 9 21 1 -6
BITMAP
C180
C180
C180
C180
C180
C180
C180
C180
C180
C180
C180
C180
C180
3F00
3F00
0C00
0C00
3000
3000
0F00
0F00
ENDCHAR
STARTCHAR uogonek
ENCODING 371
SWIDTH 382 0
DWIDTH 10 0
BBX 8 17 1 -6
BITMAP
C3
C3
C3
C3
C3
C3
C3
C3
C3
3F
3F
0C
0C
30
30
0F
0F
ENDCHAR
STARTCHAR Wcircumflex
ENCODING 372
SWIDTH 604 0
DWIDTH 15 0
BBX 13 21 1 0
BITMAP
0300
0300
0D80
0D80
0000
0000
C318
C318
C318
C318
C318
C318
3360
3360
3360
3360
3360
0D80
0D80
0D80
0D80
ENDCHAR
STARTCHAR wcircumflex
ENCODING 373
SWIDTH 576 0
DWIDTH 14 0
BBX 13 17 1 0
BITMAP
0600
0600
1980
1980
0000
0000
C018
C018
C018
E678
6660
6660
6660
1980
1980
1980
1980
ENDCHAR
STARTCHAR Ycircumflex
ENCODING 374
SWIDTH 456 0
DWIDTH 11 0
BBX 9 21 1 0
BITMAP
0C00
0C00
3300
3300
0000
0000
C180
C180
3300
3300
3300
3300
0C00
0C00
0C00
0C00
0C00
0C00
0C00
0C00
0C00
ENDCHAR
STARTCHAR ycircumflex
ENCODING 375
SWIDTH 378 0
DWIDTH 9 0
BBX 7 23 1 -6
BITMAP
18
18
66
66
00
00
C6
C6
C6
C6
C6
C6
C6
C6
C6
3E
3E
06
06
C6
C6
3C
3C
ENDCHAR
STARTCHAR Ydieresis
ENCODING 376
SWIDTH 456 0
DWIDTH 11 0
BBX 9 19 1 0
BITMAP
3300
3300
0000
0000
C180
C180
3300
3300
3300
3300
0C00
0C00
0C00
0C00
0C00
0C00
0C00
0C00
0C00
ENDCHAR
STARTCHAR Zacute
ENCODING 377
SWIDTH 382 0
DWIDTH 10 0
BBX 8 21 1 0
BITMAP
0C
0C
30
30
00
00
FF
FF
03
03
0C
0C
0C
3C
30
30
30
C0
C0
FF
FF
ENDCHAR
STARTCHAR zacute
ENCODING 378
SWIDTH 366 0
DWIDTH 9 0
BBX 7 17 1 0
BITMAP
1C
1C
30
30
00
00
FE
FE
06
1E
18
30
30
C0
C0
FE
FE
ENDCHAR
STARTCHAR Zdotaccent
ENCODING 379
SWIDTH 382 0
DWIDTH 10 0
BBX 8 19 1 0
BITMAP
18
18
00
00
FF
FF
03
03
0C
0C
0C
3C
30
30
30
C0
C0
FF
FF
ENDCHAR
STARTCHAR zdotaccent
ENCODING 380
SWIDTH 366 0
DWIDTH 9 0
BBX 7 15 1 0
BITMAP
18
18
00
00
FE
FE
06
1E
18
30
30
C0
C0
FE
FE
ENDCHAR
STARTCHAR Zcaron
ENCODING 381
SWIDTH 382 0
DWIDTH 10 0
BBX 8 21 1 0
BITMAP
66
66
18
18
00
00
FF
FF
03
03
0C
0C
0C
3C
30
30
30
C0
C0
FF
FF
ENDCHAR
STARTCHAR zcaron
ENCODING 382
SWIDTH 366 0
DWIDTH 9 0
BBX 7 17 1 0
BITMAP
6C
6C
18
18
00
00
FE
FE
06
1E
18
30
30
C0
C0
FE
FE
ENDCHAR
STARTCHAR florin
ENCODING 402
SWIDTH 456 0
DWIDTH 11 0
BBX 9 19 1 -4
BITMAP
0180
0180
0300
0300
0C00
0C00
3F80
3F80
0C00
0C00
0C00
0C00
0C00
0C00
0C00
3000
3000
C000
C000
ENDCHAR
STARTCHAR Ohorn
ENCODING 416
SWIDTH 547 0
DWIDTH 14 0
BBX 13 17 1 0
BITMAP
0018
0018
3F60
3F60
C180
C180
C180
C180
C180
C180
C180
C180
C180
C180
C180
3F00
3F00
ENDCHAR
STARTCHAR ohorn
ENCODING 417
SWIDTH 473 0
DWIDTH 12 0
BBX 11 13 1 0
BITMAP
0060
0060
3D80
3D80
C300
C300
C300
C300
C300
C300
C300
3C00
3C00
ENDCHAR
STARTCHAR Uhorn
ENCODING 431
SWIDTH 544 0
DWIDTH 14 0
BBX 13 17 1 0
BITMAP
0018
0018
C1E0
C1E0
C180
C180
C180
C180
C180
C180
C180
C180
C180
C180
C180
3F00
3F00
ENDCHAR
STARTCHAR uhorn
ENCODING 432
SWIDTH 475 0
DWIDTH 12 0
BBX 11 13 1 0
BITMAP
0060
0060
C380
C380
C300
C300
C300
C300
C300
C300
C300
3F00
3F00
ENDCHAR
STARTCHAR Scommaaccent
ENCODING 536
SWIDTH 456 0
DWIDTH 11 0
BBX 9 21 1 -6
BITMAP
3F00
3F00
C180
C180
C000
C000
3F00
3F80
0180
C180
C180
C180
C180
3F00
3F00
0000
0000
0C00
0C00
3000
3000
ENDCHAR
STARTCHAR scommaaccent
ENCODING 537
SWIDTH 372 0
DWIDTH 9 0
BBX 8 17 1 -6
BITMAP
3C
3C
C0
FC
3C
07
07
07
07
FC
FC
00
00
30
30
C0
C0
ENDCHAR
STARTCHAR uni021A
ENCODING 538
SWIDTH 409 0
DWIDTH 10 0
BBX 10 21 0 -6
BITMAP
FFC0
FFC0
0C00
0C00
0C00
0C00
0C00
0C00
0C00
0C00
0C00
0C00
0C00
0C00
0C00
0000
0000
0C00
0C00
3000
3000
ENDCHAR
STARTCHAR uni021B
ENCODING 539
SWIDTH 284 0
DWIDTH 7 0
BBX 5 21 1 -6
BITMAP
60
60
60
60
F8
F8
60
60
60
60
60
60
60
18
18
00
00
60
60
C0
C0
ENDCHAR
STARTCHAR circumflex
ENCODING 710
SWIDTH 308 0
DWIDTH 8 0
BBX 6 4 1 13
BITMAP
30
30
CC
CC
ENDCHAR
STARTCHAR caron
ENCODING 711
SWIDTH 308 0
DWIDTH 8 0
BBX 6 4 1 13
BITMAP
CC
CC
30
30
ENDCHAR
STARTCHAR uni02C9
ENCODING 713
SWIDTH 382 0
DWIDTH 10 0
BBX 8 2 1 13
BITMAP
FF
FF
ENDCHAR
STARTCHAR breve
ENCODING 728
SWIDTH 382 0
DWIDTH 10 0
BBX 8 4 1 13
BITMAP
C3
C3
3C
3C
ENDCHAR
STARTCHAR dotaccent
ENCODING 729
SWIDTH 160 0
DWIDTH 4 0
BBX 2 2 1 13
BITMAP
C0
C0
ENDCHAR
STARTCHAR ring
ENCODING 730
SWIDTH 308 0
DWIDTH 8 0
BBX 6 6 1 13
BITMAP
30
30
CC
CC
30
30
ENDCHAR
STARTCHAR ogonek
ENCODING 731
SWIDTH 308 0
DWIDTH 8 0
BBX 6 6 1 -6
BITMAP
30
30
C0
C0
3C
3C
ENDCHAR
STARTCHAR tilde
ENCODING 732
SWIDTH 382 0
DWIDTH 10 0
BBX 8 4 1 13
BITMAP
33
33
CC
CC
ENDCHAR
STARTCHAR hungarumlaut
ENCODING 733
SWIDTH 456 0
DWIDTH 11 0
BBX 10 6 0 13
BITMAP
30C0
30C0
30C0
30C0
C300
C300
ENDCHAR
STARTCHAR tildecomb
ENCODING 771
SWIDTH 308 0
DWIDTH 8 0
BBX 6 8 1 13
BITMAP
FC
FC
00
00
30
30
CC
CC
ENDCHAR
STARTCHAR hookabovecomb
ENCODING 777
SWIDTH 308 0
DWIDTH 8 0
BBX 6 6 1 13
BITMAP
F0
F0
0C
0C
30
30
ENDCHAR
STARTCHAR dotbelowcomb
ENCODING 803
SWIDTH 160 0
DWIDTH 4 0
BBX 2 2 1 -5
BITMAP
C0
C0
ENDCHAR
STARTCHAR commaaccent
ENCODING 806
SWIDTH 234 0
DWIDTH 6 0
BBX 4 4 1 -6
BITMAP
30
30
C0
C0
ENDCHAR
STARTCHAR uni037E
ENCODING 894
SWIDTH 234 0
DWIDTH 6 0
BBX 4 13 1 -4
BITMAP
30
30
00
00
00
00
00
30
30
30
30
C0
C0
ENDCHAR
STARTCHAR tonos
ENCODING 900
SWIDTH 160 0
DWIDTH 4 0
BBX 2 4 1 14
BITMAP
C0
C0
C0
C0
ENDCHAR
STARTCHAR dieresistonos
ENCODING 901
SWIDTH 456 0
DWIDTH 11 0
BBX 9 4 1 14
BITMAP
0C00
0C00
CD80
CD80
ENDCHAR
STARTCHAR Alphatonos
ENCODING 902
SWIDTH 530 0
DWIDTH 13 0
BBX 12 18 0 0
BITMAP
C000
C000
C000
C780
0780
0780
0780
18C0
18C0
18C0
1FC0
1FC0
6030
6030
6030
6030
6030
6030
ENDCHAR
STARTCHAR Epsilontonos
ENCODING 904
SWIDTH 493 0
DWIDTH 12 0
BBX 11 18 0 0
BITMAP
C000
C000
C000
CFE0
0FE0
0C00
0C00
0C00
0C00
0FE0
0FE0
0C00
0C00
0C00
0C00
0C00
0FE0
0FE0
ENDCHAR
STARTCHAR Etatonos
ENCODING 905
SWIDTH 561 0
DWIDTH 14 0
BBX 13 18 0 0
BITMAP
C000
C000
C000
CC18
0C18
0C18
0C18
0C18
0C18
0FF8
0FF8
0C18
0C18
0C18
0C18
0C18
0C18
0C18
ENDCHAR
STARTCHAR Iotatonos
ENCODING 906
SWIDTH 263 0
DWIDTH 7 0
BBX 6 18 0 0
BITMAP
C0
C0
C0
CC
0C
0C
0C
0C
0C
0C
0C
0C
0C
0C
0C
0C
0C
0C
ENDCHAR
STARTCHAR Omicrontonos
ENCODING 908
SWIDTH 536 0
DWIDTH 13 0
BBX 12 18 0 0
BITMAP
C000
C000
C000
C7E0
07E0
1830
1830
1830
1830
1830
1830
1830
1830
1830
1830
1830
07E0
07E0
ENDCHAR
STARTCHAR Upsilontonos
ENCODING 910
SWIDTH 551 0
DWIDTH 14 0
BBX 13 18 0 0
BITMAP
C000
C000
C000
D818
1818
0660
0660
0660
0660
0180
0180
0180
0180
0180
0180
0180
0180
0180
ENDCHAR
STARTCHAR Omegatonos
ENCODING 911
SWIDTH 513 0
DWIDTH 13 0
BBX 12 18 0 0
BITMAP
C000
C000
C000
CFC0
0FC0
3030
3030
3030
3030
3030
3030
3030
0CC0
0CC0
0CC0
0CC0
3CF0
3CF0
ENDCHAR
STARTCHAR iotadieresistonos
ENCODING 912
SWIDTH 169 0
DWIDTH 4 0
BBX 10 18 -3 0
BITMAP
0C00
0C00
CCC0
CCC0
0000
0000
0000
0C00
0C00
0C00
0C00
0C00
0C00
0C00
0C00
0C00
0C00
0C00
ENDCHAR
STARTCHAR Alpha
ENCODING 913
SWIDTH 530 0
DWIDTH 13 0
BBX 11 15 1 0
BITMAP
0F00
0F00
0F00
0F00
3180
3180
3180
3F80
3F80
C060
C060
C060
C060
C060
C060
ENDCHAR
STARTCHAR Beta
ENCODING 914
SWIDTH 456 0
DWIDTH 11 0
BBX 9 15 1 0
BITMAP
FF00
FF00
C180
C180
C180
C180
FF00
FF80
C180
C180
C180
C180
C180
FF00
FF00
ENDCHAR
STARTCHAR Gamma
ENCODING 915
SWIDTH 365 0
DWIDTH 9 0
BBX 8 15 1 0
BITMAP
FF
FF
C0
C0
C0
C0
C0
C0
C0
C0
C0
C0
C0
C0
C0
ENDCHAR
STARTCHAR Delta
ENCODING 916
SWIDTH 530 0
DWIDTH 13 0
BBX 11 15 1 0
BITMAP
0F00
0F00
0F00
0F00
3180
3180
3180
3180
3180
C060
C060
C060
C060
FFE0
FFE0
ENDCHAR
STARTCHAR Epsilon
ENCODING 917
SWIDTH 377 0
DWIDTH 9 0
BBX 8 15 1 0
BITMAP
FF
FF
C0
C0
C0
C0
FF
FF
C0
C0
C0
C0
C0
FF
FF
ENDCHAR
STARTCHAR Zeta
ENCODING 918
SWIDTH 382 0
DWIDTH 10 0
BBX 8 15 1 0
BITMAP
FF
FF
03
03
0C
0C
0C
3C
30
30
30
C0
C0
FF
FF
ENDCHAR
STARTCHAR Eta
ENCODING 919
SWIDTH 456 0
DWIDTH 11 0
BBX 9 15 1 0
BITMAP
C180
C180
C180
C180
C180
C180
FF80
FF80
C180
C180
C180
C180
C180
C180
C180
ENDCHAR
STARTCHAR Theta
ENCODING 920
SWIDTH 456 0
DWIDTH 11 0
BBX 9 15 1 0
BITMAP
3F00
3F00
C180
C180
C180
C180
FF80
FF80
C180
C180
C180
C180
C180
3F00
3F00
ENDCHAR
STARTCHAR Iota
ENCODING 921
SWIDTH 160 0
DWIDTH 4 0
BBX 2 15 1 0
BITMAP
C0
C0
C0
C0
C0
C0
C0
C0
C0
C0
C0
C0
C0
C0
C0
ENDCHAR
STARTCHAR Kappa
ENCODING 922
SWIDTH 438 0
DWIDTH 11 0
BBX 9 15 1 0
BITMAP
C300
C300
CC00
CC00
F000
F000
CC00
CC00
CC00
C300
C300
C300
C300
C180
C180
ENDCHAR
STARTCHAR Lambda
ENCODING 923
SWIDTH 517 0
DWIDTH 13 0
BBX 11 15 1 0
BITMAP
0E00
0E00
0E00
0E00
3180
3180
3180
3180
3180
C060
C060
C060
C060
C060
C060
ENDCHAR
STARTCHAR Mu
ENCODING 924
SWIDTH 604 0
DWIDTH 15 0
BBX 13 15 1 0
BITMAP
C018
C018
C018
C018
F078
F078
F078
FDF8
CD98
CD98
CD98
C318
C318
C318
C318
ENDCHAR
STARTCHAR Nu
ENCODING 925
SWIDTH 456 0
DWIDTH 11 0
BBX 9 15 1 0
BITMAP
C180
C180
F180
F180
F180
F180
CD80
CD80
CD80
C380
C380
C380
C380
C180
C180
ENDCHAR
STARTCHAR Xi
ENCODING 926
SWIDTH 456 0
DWIDTH 11 0
BBX 9 15 1 0
BITMAP
FF80
FF80
0000
0000
0000
0000
FF80
FF80
0000
0000
0000
0000
0000
FF80
FF80
ENDCHAR
STARTCHAR Omicron
ENCODING 927
SWIDTH 456 0
DWIDTH 11 0
BBX 9 15 1 0
BITMAP
3F00
3F00
C180
C180
C180
C180
C180
C180
C180
C180
C180
C180
C180
3F00
3F00
ENDCHAR
STARTCHAR Pi
ENCODING 928
SWIDTH 456 0
DWIDTH 11 0
BBX 9 15 1 0
BITMAP
FF80
FF80
C180
C180
C180
C180
C180
C180
C180
C180
C180
C180
C180
C180
C180
ENDCHAR
STARTCHAR Rho
ENCODING 929
SWIDTH 456 0
DWIDTH 11 0
BBX 9 15 1 0
BITMAP
FF00
FF00
C180
C180
C180
C180
FF00
FF00
C000
C000
C000
C000
C000
C000
C000
ENDCHAR
STARTCHAR Sigma
ENCODING 931
SWIDTH 378 0
DWIDTH 9 0
BBX 8 15 1 0
BITMAP
FF
FF
C0
C0
30
30
0C
3C
30
C0
C0
C0
C0
FF
FF
ENDCHAR
STARTCHAR Tau
ENCODING 932
SWIDTH 409 0
DWIDTH 10 0
BBX 10 15 0 0
BITMAP
FFC0
FFC0
0C00
0C00
0C00
0C00
0C00
0C00
0C00
0C00
0C00
0C00
0C00
0C00
0C00
ENDCHAR
STARTCHAR Upsilon
ENCODING 933
SWIDTH 456 0
DWIDTH 11 0
BBX 9 15 1 0
BITMAP
C180
C180
3300
3300
3300
3300
0C00
0C00
0C00
0C00
0C00
0C00
0C00
0C00
0C00
ENDCHAR
STARTCHAR Phi
ENCODING 934
SWIDTH 581 0
DWIDTH 15 0
BBX 13 15 1 0
BITMAP
3FE0
3FE0
C618
C618
C618
C618
C618
C618
C618
3FE0
3FE0
0600
0600
0600
0600
ENDCHAR
STARTCHAR Chi
ENCODING 935
SWIDTH 456 0
DWIDTH 11 0
BBX 9 15 1 0
BITMAP
C180
C180
3300
3300
3300
3300
0C00
3F00
3300
3300
3300
C180
C180
C180
C180
ENDCHAR
STARTCHAR Psi
ENCODING 936
SWIDTH 456 0
DWIDTH 11 0
BBX 9 15 1 0
BITMAP
CD80
CD80
CD80
CD80
CD80
CD80
CD80
CD80
CD80
3F00
3F00
0C00
0C00
0C00
0C00
ENDCHAR
STARTCHAR Omega
ENCODING 937
SWIDTH 456 0
DWIDTH 11 0
BBX 9 15 1 0
BITMAP
3F00
3F00
C180
C180
C180
C180
C180
C180
C180
3300
3300
3300
3300
F380
F380
ENDCHAR
STARTCHAR Iotadieresis
ENCODING 938
SWIDTH 160 0
DWIDTH 4 0
BBX 6 19 -1 0
BITMAP
CC
CC
00
00
30
30
30
30
30
30
30
30
30
30
30
30
30
30
30
ENDCHAR
STARTCHAR Upsilondieresis
ENCODING 939
SWIDTH 456 0
DWIDTH 11 0
BBX 9 19 1 0
BITMAP
3300
3300
0000
0000
C180
C180
3300
3300
3300
3300
0C00
0C00
0C00
0C00
0C00
0C00
0C00
0C00
0C00
ENDCHAR
STARTCHAR alphatonos
ENCODING 940
SWIDTH 442 0
DWIDTH 11 0
BBX 9 18 1 0
BITMAP
0C00
0C00
0C00
0C00
0000
0000
0000
3C00
3C00
0600
3E00
3E00
C600
C600
C600
C600
3D80
3D80
ENDCHAR
STARTCHAR epsilontonos
ENCODING 941
SWIDTH 368 0
DWIDTH 9 0
BBX 7 18 1 0
BITMAP
18
18
18
18
00
00
00
3C
3C
C6
F6
30
C0
C0
C6
C6
3C
3C
ENDCHAR
STARTCHAR etatonos
ENCODING 942
SWIDTH 380 0
DWIDTH 10 0
BBX 8 18 1 0
BITMAP
18
18
18
18
00
00
00
FC
FC
C3
C3
C3
C3
C3
C3
C3
C3
C3
ENDCHAR
STARTCHAR iotatonos
ENCODING 943
SWIDTH 169 0
DWIDTH 4 0
BBX 2 18 1 0
BITMAP
C0
C0
C0
C0
00
00
00
C0
C0
C0
C0
C0
C0
C0
C0
C0
C0
C0
ENDCHAR
STARTCHAR upsilondieresistonos
ENCODING 944
SWIDTH 382 0
DWIDTH 10 0
BBX 10 18 0 0
BITMAP
0C00
0C00
CDC0
CDC0
0000
0000
0000
6180
6180
6180
6180
6180
6180
6180
6180
6180
1E00
1E00
ENDCHAR
STARTCHAR alpha
ENCODING 945
SWIDTH 443 0
DWIDTH 11 0
BBX 9 11 1 0
BITMAP
3D80
3D80
C600
C600
C600
C600
C600
C600
C600
3D80
3D80
ENDCHAR
STARTCHAR beta
ENCODING 946
SWIDTH 382 0
DWIDTH 10 0
BBX 8 15 1 0
BITMAP
3C
3C
C3
C3
C3
C3
CC
CF
C3
C3
C3
C3
C3
CC
CC
ENDCHAR
STARTCHAR gamma
ENCODING 947
SWIDTH 438 0
DWIDTH 11 0
BBX 9 17 1 -6
BITMAP
C180
C180
C180
F780
3600
3600
3600
1C00
1C00
1C00
1C00
1C00
1C00
1C00
1C00
1C00
1C00
ENDCHAR
STARTCHAR delta
ENCODING 948
SWIDTH 483 0
DWIDTH 12 0
BBX 12 13 0 0
BITMAP
3F30
3F30
C3C0
C3C0
0CC0
0CC0
0CC0
30C0
30C0
30C0
30C0
0F00
0F00
ENDCHAR
STARTCHAR epsilon
ENCODING 949
SWIDTH 368 0
DWIDTH 9 0
BBX 7 11 1 0
BITMAP
3C
3C
C6
F6
30
C0
C0
C6
C6
3C
3C
ENDCHAR
STARTCHAR zeta
ENCODING 950
SWIDTH 378 0
DWIDTH 9 0
BBX 7 21 1 -6
BITMAP
FE
FE
06
06
0C
0C
30
F0
C0
C0
C0
C0
C0
3E
3E
06
06
06
06
0C
0C
ENDCHAR
STARTCHAR eta
ENCODING 951
SWIDTH 380 0
DWIDTH 10 0
BBX 8 11 1 0
BITMAP
FC
FC
C3
C3
C3
C3
C3
C3
C3
C3
C3
ENDCHAR
STARTCHAR theta
ENCODING 952
SWIDTH 382 0
DWIDTH 10 0
BBX 8 15 1 0
BITMAP
3C
3C
C3
C3
C3
C3
FF
FF
C3
C3
C3
C3
C3
3C
3C
ENDCHAR
STARTCHAR iota
ENCODING 953
SWIDTH 169 0
DWIDTH 4 0
BBX 2 11 1 0
BITMAP
C0
C0
C0
C0
C0
C0
C0
C0
C0
C0
C0
ENDCHAR
STARTCHAR kappa
ENCODING 954
SWIDTH 373 0
DWIDTH 9 0
BBX 8 11 1 0
BITMAP
C3
C3
CC
FC
F0
F0
F0
CC
CC
C3
C3
ENDCHAR
STARTCHAR lambda
ENCODING 955
SWIDTH 382 0
DWIDTH 10 0
BBX 8 15 1 0
BITMAP
3C
3C
C3
C3
03
03
3F
FF
C3
C3
C3
C3
C3
C3
C3
ENDCHAR
STARTCHAR mu
ENCODING 956
SWIDTH 382 0
DWIDTH 10 0
BBX 8 17 1 -6
BITMAP
C3
C3
C3
C3
C3
C3
C3
C3
C3
FF
FF
C0
C0
C0
C0
C0
C0
ENDCHAR
STARTCHAR nu
ENCODING 957
SWIDTH 430 0
DWIDTH 11 0
BBX 9 11 1 0
BITMAP
C180
C180
C180
E780
6600
6600
6600
1800
1800
1800
1800
ENDCHAR
STARTCHAR xi
ENCODING 958
SWIDTH 382 0
DWIDTH 10 0
BBX 8 19 1 -4
BITMAP
3C
3C
C3
C3
C0
C0
3C
FC
C0
C0
C0
C0
C0
3F
3F
03
03
0C
0C
ENDCHAR
STARTCHAR omicron
ENCODING 959
SWIDTH 373 0
DWIDTH 9 0
BBX 7 11 1 0
BITMAP
3C
3C
C6
C6
C6
C6
C6
C6
C6
3C
3C
ENDCHAR
STARTCHAR pi
ENCODING 960
SWIDTH 382 0
DWIDTH 10 0
BBX 8 11 1 0
BITMAP
FF
FF
C3
C3
C3
C3
C3
C3
C3
C3
C3
ENDCHAR
STARTCHAR rho
ENCODING 961
SWIDTH 382 0
DWIDTH 10 0
BBX 8 17 1 -6
BITMAP
3C
3C
C3
C3
C3
C3
C3
C3
C3
FC
FC
C0
C0
C0
C0
C0
C0
ENDCHAR
STARTCHAR sigma1
ENCODING 962
SWIDTH 382 0
DWIDTH 10 0
BBX 8 15 1 -4
BITMAP
3C
3C
C3
C3
C0
C0
C0
C0
C0
3F
3F
03
03
0C
0C
ENDCHAR
STARTCHAR sigma
ENCODING 963
SWIDTH 420 0
DWIDTH 11 0
BBX 9 11 1 0
BITMAP
3F80
3F80
C300
C300
C300
C300
C300
C300
C300
3C00
3C00
ENDCHAR
STARTCHAR tau
ENCODING 964
SWIDTH 402 0
DWIDTH 10 0
BBX 10 11 0 0
BITMAP
FFC0
FFC0
0C00
0C00
0C00
0C00
0C00
0C00
0C00
0C00
0C00
ENDCHAR
STARTCHAR upsilon
ENCODING 965
SWIDTH 382 0
DWIDTH 10 0
BBX 8 11 1 0
BITMAP
C3
C3
C3
C3
C3
C3
C3
C3
C3
3C
3C
ENDCHAR
STARTCHAR phi
ENCODING 966
SWIDTH 456 0
DWIDTH 11 0
BBX 9 17 1 -6
BITMAP
3F00
3F00
CD80
CD80
CD80
CD80
CD80
CD80
CD80
3F00
3F00
0C00
0C00
0C00
0C00
0C00
0C00
ENDCHAR
STARTCHAR chi
ENCODING 967
SWIDTH 382 0
DWIDTH 10 0
BBX 8 11 1 0
BITMAP
C3
C3
C3
FF
3C
C3
C3
C3
C3
C3
C3
ENDCHAR
STARTCHAR psi
ENCODING 968
SWIDTH 456 0
DWIDTH 11 0
BBX 9 17 1 -6
BITMAP
CD80
CD80
CD80
CD80
CD80
CD80
CD80
CD80
CD80
3F00
3F00
0C00
0C00
0C00
0C00
0C00
0C00
ENDCHAR
STARTCHAR omega
ENCODING 969
SWIDTH 456 0
DWIDTH 11 0
BBX 9 11 1 0
BITMAP
CD80
CD80
CD80
CD80
CD80
CD80
CD80
CD80
CD80
3300
3300
ENDCHAR
STARTCHAR iotadieresis
ENCODING 970
SWIDTH 169 0
DWIDTH 4 0
BBX 6 15 -1 0
BITMAP
CC
CC
00
00
30
30
30
30
30
30
30
30
30
30
30
ENDCHAR
STARTCHAR upsilondieresis
ENCODING 971
SWIDTH 382 0
DWIDTH 10 0
BBX 8 15 1 0
BITMAP
66
66
00
00
C3
C3
C3
C3
C3
C3
C3
C3
C3
3C
3C
ENDCHAR
STARTCHAR omicrontonos
ENCODING 972
SWIDTH 373 0
DWIDTH 9 0
BBX 7 18 1 0
BITMAP
18
18
18
18
00
00
00
3C
3C
C6
C6
C6
C6
C6
C6
C6
3C
3C
ENDCHAR
STARTCHAR upsilontonos
ENCODING 973
SWIDTH 382 0
DWIDTH 10 0
BBX 8 18 1 0
BITMAP
18
18
18
18
00
00
00
C3
C3
C3
C3
C3
C3
C3
C3
C3
3C
3C
ENDCHAR
STARTCHAR omegatonos
ENCODING 974
SWIDTH 456 0
DWIDTH 11 0
BBX 9 18 1 0
BITMAP
0C00
0C00
0C00
0C00
0000
0000
0000
CD80
CD80
CD80
CD80
CD80
CD80
CD80
CD80
CD80
3300
3300
ENDCHAR
STARTCHAR Wgrave
ENCODING 7808
SWIDTH 604 0
DWIDTH 15 0
BBX 13 21 1 0
BITMAP
0600
0600
0300
0300
0000
0000
C318
C318
C318
C318
C318
C318
3360
3360
3360
3360
3360
0D80
0D80
0D80
0D80
ENDCHAR
STARTCHAR wgrave
ENCODING 7809
SWIDTH 576 0
DWIDTH 14 0
BBX 13 17 1 0
BITMAP
0C00
0C00
0300
0300
0000
0000
C018
C018
C018
E678
6660
6660
6660
1980
1980
1980
1980
ENDCHAR
STARTCHAR Wacute
ENCODING 7810
SWIDTH 604 0
DWIDTH 15 0
BBX 13 21 1 0
BITMAP
0300
0300
0600
0600
0000
0000
C318
C318
C318
C318
C318
C318
3360
3360
3360
3360
3360
0D80
0D80
0D80
0D80
ENDCHAR
STARTCHAR wacute
ENCODING 7811
SWIDTH 576 0
DWIDTH 14 0
BBX 13 17 1 0
BITMAP
0300
0300
0C00
0C00
0000
0000
C018
C018
C018
E678
6660
6660
6660
1980
1980
1980
1980
ENDCHAR
STARTCHAR Wdieresis
ENCODING 7812
SWIDTH 604 0
DWIDTH 15 0
BBX 13 19 1 0
BITMAP
0D80
0D80
0000
0000
C318
C318
C318
C318
C318
C318
3360
3360
3360
3360
3360
0D80
0D80
0D80
0D80
ENDCHAR
STARTCHAR wdieresis
ENCODING 7813
SWIDTH 576 0
DWIDTH 14 0
BBX 13 15 1 0
BITMAP
1980
1980
0000
0000
C018
C018
C018
E678
6660
6660
6660
1980
1980
1980
1980
ENDCHAR
STARTCHAR uni1EA0
ENCODING 7840
SWIDTH 530 0
DWIDTH 13 0
BBX 11 20 1 -5
BITMAP
0F00
0F00
0F00
0F00
3180
3180
3180
3F80
3F80
C060
C060
C060
C060
C060
C060
0000
0000
0000
0600
0600
ENDCHAR
STARTCHAR uni1EA1
ENCODING 7841
SWIDTH 442 0
DWIDTH 11 0
BBX 9 16 1 -5
BITMAP
3C00
3C00
0600
3E00
3E00
C600
C600
C600
C600
3D80
3D80
0000
0000
0000
0C00
0C00
ENDCHAR
STARTCHAR uni1EA2
ENCODING 7842
SWIDTH 530 0
DWIDTH 13 0
BBX 11 23 1 0
BITMAP
1E00
1E00
0300
0300
0600
0600
0000
0000
0F00
0F00
0F00
0F00
3180
3180
3180
3F80
3F80
C060
C060
C060
C060
C060
C060
ENDCHAR
STARTCHAR uni1EA3
ENCODING 7843
SWIDTH 442 0
DWIDTH 11 0
BBX 9 19 1 0
BITMAP
3C00
3C00
0600
0600
0C00
0C00
0000
0000
3C00
3C00
0600
3E00
3E00
C600
C600
C600
C600
3D80
3D80
ENDCHAR
STARTCHAR uni1EA4
ENCODING 7844
SWIDTH 530 0
DWIDTH 13 0
BBX 14 21 1 0
BITMAP
060C
060C
1B30
1B30
0000
0000
0F00
0F00
0F00
0F00
3180
3180
3180
3F80
3F80
C060
C060
C060
C060
C060
C060
ENDCHAR
STARTCHAR uni1EA5
ENCODING 7845
SWIDTH 442 0
DWIDTH 11 0
BBX 12 17 1 0
BITMAP
1830
1830
6EC0
6EC0
0000
0000
3C00
3C00
0600
3E00
3E00
C600
C600
C600
C600
3D80
3D80
ENDCHAR
STARTCHAR uni1EA6
ENCODING 7846
SWIDTH 530 0
DWIDTH 13 0
BBX 14 21 -2 0
BITMAP
C0C0
C0C0
3330
3330
0000
0000
01E0
01E0
01E0
01E0
0630
0630
0630
07F0
07F0
180C
180C
180C
180C
180C
180C
ENDCHAR
STARTCHAR uni1EA7
ENCODING 7847
SWIDTH 442 0
DWIDTH 11 0
BBX 14 17 -4 0
BITMAP
E0C0
E0C0
3330
3330
0000
0000
01E0
01E0
0030
01F0
01F0
0630
0630
0630
0630
01EC
01EC
ENDCHAR
STARTCHAR uni1EA8
ENCODING 7848
SWIDTH 530 0
DWIDTH 13 0
BBX 14 23 1 0
BITMAP
00F0
00F0
060C
060C
1B30
1B30
0000
0000
0F00
0F00
0F00
0F00
3180
3180
3180
3F80
3F80
C060
C060
C060
C060
C060
C060
ENDCHAR
STARTCHAR uni1EA9
ENCODING 7849
SWIDTH 442 0
DWIDTH 11 0
BBX 12 19 1 0
BITMAP
03C0
03C0
1830
1830
6CC0
6CC0
0000
0000
3C00
3C00
0600
3E00
3E00
C600
C600
C600
C600
3D80
3D80
ENDCHAR
STARTCHAR uni1EAA
ENCODING 7850
SWIDTH 530 0
DWIDTH 13 0
BBX 11 25 1 0
BITMAP
1F00
1F00
0000
0000
0600
0600
1B00
1B00
0000
0000
0F00
0F00
0F00
0F00
3180
3180
3180
3F80
3F80
C060
C060
C060
C060
C060
C060
ENDCHAR
STARTCHAR uni1EAB
ENCODING 7851
SWIDTH 442 0
DWIDTH 11 0
BBX 9 21 1 0
BITMAP
7E00
7E00
0000
0000
1800
1800
6600
6600
0000
0000
3C00
3C00
0600
3E00
3E00
C600
C600
C600
C600
3D80
3D80
ENDCHAR
STARTCHAR uni1EAC
ENCODING 7852
SWIDTH 530 0
DWIDTH 13 0
BBX 11 26 1 -5
BITMAP
0600
0600
1B00
1B00
0000
0000
0F00
0F00
0F00
0F00
3180
3180
3180
3F80
3F80
C060
C060
C060
C060
C060
C060
0000
0000
0000
0600
0600
ENDCHAR
STARTCHAR uni1EAD
ENCODING 7853
SWIDTH 442 0
DWIDTH 11 0
BBX 9 22 1 -5
BITMAP
1800
1800
6600
6600
0000
0000
3C00
3C00
0600
3E00
3E00
C600
C600
C600
C600
3D80
3D80
0000
0000
0000
0C00
0C00
ENDCHAR
STARTCHAR uni1EAE
ENCODING 7854
SWIDTH 530 0
DWIDTH 13 0
BBX 11 25 1 0
BITMAP
0300
0300
0C00
0C00
3180
3180
0F00
0F00
0000
0000
0F00
0F00
0F00
0F00
3180
3180
3180
3F80
3F80
C060
C060
C060
C060
C060
C060
ENDCHAR
STARTCHAR uni1EAF
ENCODING 7855
SWIDTH 442 0
DWIDTH 11 0
BBX 9 21 1 0
BITMAP
0C00
0C00
3000
3000
C300
C300
3C00
3C00
0000
0000
3C00
3C00
0600
3E00
3E00
C600
C600
C600
C600
3D80
3D80
ENDCHAR
STARTCHAR uni1EB0
ENCODING 7856
SWIDTH 530 0
DWIDTH 13 0
BBX 11 25 1 0
BITMAP
0C00
0C00
0300
0300
3180
3180
0F00
0F00
0000
0000
0F00
0F00
0F00
0F00
3180
3180
3180
3F80
3F80
C060
C060
C060
C060
C060
C060
ENDCHAR
STARTCHAR uni1EB1
ENCODING 7857
SWIDTH 442 0
DWIDTH 11 0
BBX 9 21 1 0
BITMAP
3000
3000
1C00
1C00
C600
C600
3C00
3C00
0000
0000
3C00
3C00
0600
3E00
3E00
C600
C600
C600
C600
3D80
3D80
ENDCHAR
STARTCHAR uni1EB2
ENCODING 7858
SWIDTH 530 0
DWIDTH 13 0
BBX 11 25 1 0
BITMAP
0F00
0F00
0300
0300
3180
3180
0F00
0F00
0000
0000
0F00
0F00
0F00
0F00
3180
3180
3180
3F80
3F80
C060
C060
C060
C060
C060
C060
ENDCHAR
STARTCHAR uni1EB3
ENCODING 7859
SWIDTH 442 0
DWIDTH 11 0
BBX 9 21 1 0
BITMAP
3C00
3C00
0C00
0C00
C700
C700
3C00
3C00
0000
0000
3C00
3C00
0600
3E00
3E00
C600
C600
C600
C600
3D80
3D80
ENDCHAR
STARTCHAR uni1EB4
ENCODING 7860
SWIDTH 530 0
DWIDTH 13 0
BBX 11 25 1 0
BITMAP
3F80
3F80
0000
0000
3180
3180
0F00
0F00
0000
0000
0F00
0F00
0F00
0F00
3180
3180
3180
3F80
3F80
C060
C060
C060
C060
C060
C060
ENDCHAR
STARTCHAR uni1EB5
ENCODING 7861
SWIDTH 442 0
DWIDTH 11 0
BBX 9 21 1 0
BITMAP
FE00
FE00
0000
0000
C600
C600
3C00
3C00
0000
0000
3C00
3C00
0600
3E00
3E00
C600
C600
C600
C600
3D80
3D80
ENDCHAR
STARTCHAR uni1EB6
ENCODING 7862
SWIDTH 530 0
DWIDTH 13 0
BBX 11 26 1 -5
BITMAP
3180
3180
0F00
0F00
0000
0000
0F00
0F00
0F00
0F00
3180
3180
3180
3F80
3F80
C060
C060
C060
C060
C060
C060
0000
0000
0000
0600
0600
ENDCHAR
STARTCHAR uni1EB7
ENCODING 7863
SWIDTH 442 0
DWIDTH 11 0
BBX 9 22 1 -5
BITMAP
C600
C600
3C00
3C00
0000
0000
3C00
3C00
0600
3E00
3E00
C600
C600
C600
C600
3D80
3D80
0000
0000
0000
0C00
0C00
ENDCHAR
STARTCHAR uni1EB8
ENCODING 7864
SWIDTH 377 0
DWIDTH 9 0
BBX 8 20 1 -5
BITMAP
FF
FF
C0
C0
C0
C0
FF
FF
C0
C0
C0
C0
C0
FF
FF
00
00
00
18
18
ENDCHAR
STARTCHAR uni1EB9
ENCODING 7865
SWIDTH 382 0
DWIDTH 10 0
BBX 8 16 1 -5
BITMAP
3C
3C
C3
FF
FF
C0
C0
C3
C3
3C
3C
00
00
00
18
18
ENDCHAR
STARTCHAR uni1EBA
ENCODING 7866
SWIDTH 377 0
DWIDTH 9 0
BBX 8 23 1 0
BITMAP
78
78
0C
0C
18
18
00
00
FF
FF
C0
C0
C0
C0
FF
FF
C0
C0
C0
C0
C0
FF
FF
ENDCHAR
STARTCHAR uni1EBB
ENCODING 7867
SWIDTH 382 0
DWIDTH 10 0
BBX 8 19 1 0
BITMAP
78
78
0C
0C
18
18
00
00
3C
3C
C3
FF
FF
C0
C0
C3
C3
3C
3C
ENDCHAR
STARTCHAR uni1EBC
ENCODING 7868
SWIDTH 377 0
DWIDTH 9 0
BBX 8 21 1 0
BITMAP
33
33
CC
CC
00
00
FF
FF
C0
C0
C0
C0
FF
FF
C0
C0
C0
C0
C0
FF
FF
ENDCHAR
STARTCHAR uni1EBD
ENCODING 7869
SWIDTH 382 0
DWIDTH 10 0
BBX 8 17 1 0
BITMAP
33
33
CC
CC
00
00
3C
3C
C3
FF
FF
C0
C0
C3
C3
3C
3C
ENDCHAR
STARTCHAR uni1EBE
ENCODING 7870
SWIDTH 377 0
DWIDTH 9 0
BBX 12 21 1 0
BITMAP
1830
1830
66C0
66C0
0000
0000
FF00
FF00
C000
C000
C000
C000
FF00
FF00
C000
C000
C000
C000
C000
FF00
FF00
ENDCHAR
STARTCHAR uni1EBF
ENCODING 7871
SWIDTH 382 0
DWIDTH 10 0
BBX 12 17 1 0
BITMAP
1830
1830
66C0
66C0
0000
0000
3C00
3C00
C300
FF00
FF00
C000
C000
C300
C300
3C00
3C00
ENDCHAR
STARTCHAR uni1EC0
ENCODING 7872
SWIDTH 377 0
DWIDTH 9 0
BBX 12 21 -3 0
BITMAP
C180
C180
6660
6660
0000
0000
0FF0
0FF0
0C00
0C00
0C00
0C00
0FF0
0FF0
0C00
0C00
0C00
0C00
0C00
0FF0
0FF0
ENDCHAR
STARTCHAR uni1EC1
ENCODING 7873
SWIDTH 382 0
DWIDTH 10 0
BBX 12 17 -3 0
BITMAP
C180
C180
6660
6660
0000
0000
03C0
03C0
0C30
0FF0
0FF0
0C00
0C00
0C30
0C30
03C0
03C0
ENDCHAR
STARTCHAR uni1EC2
ENCODING 7874
SWIDTH 377 0
DWIDTH 9 0
BBX 12 23 1 0
BITMAP
01E0
01E0
1830
1830
66E0
66E0
0000
0000
FF00
FF00
C000
C000
C000
C000
FF00
FF00
C000
C000
C000
C000
C000
FF00
FF00
ENDCHAR
STARTCHAR uni1EC3
ENCODING 7875
SWIDTH 382 0
DWIDTH 10 0
BBX 12 19 1 0
BITMAP
03C0
03C0
1830
1830
66C0
66C0
0000
0000
3C00
3C00
C300
FF00
FF00
C000
C000
C300
C300
3C00
3C00
ENDCHAR
STARTCHAR uni1EC4
ENCODING 7876
SWIDTH 377 0
DWIDTH 9 0
BBX 8 25 1 0
BITMAP
7E
7E
00
00
18
18
66
66
00
00
FF
FF
C0
C0
C0
C0
FF
FF
C0
C0
C0
C0
C0
FF
FF
ENDCHAR
STARTCHAR uni1EC5
ENCODING 7877
SWIDTH 382 0
DWIDTH 10 0
BBX 8 21 1 0
BITMAP
7E
7E
00
00
18
18
66
66
00
00
3C
3C
C3
FF
FF
C0
C0
C3
C3
3C
3C
ENDCHAR
STARTCHAR uni1EC6
ENCODING 7878
SWIDTH 377 0
DWIDTH 9 0
BBX 8 26 1 -5
BITMAP
18
18
6C
6C
00
00
FF
FF
C0
C0
C0
C0
FF
FF
C0
C0
C0
C0
C0
FF
FF
00
00
00
18
18
ENDCHAR
STARTCHAR uni1EC7
ENCODING 7879
SWIDTH 382 0
DWIDTH 10 0
BBX 8 22 1 -5
BITMAP
18
18
66
66
00
00
3C
3C
C3
FF
FF
C0
C0
C3
C3
3C
3C
00
00
00
18
18
ENDCHAR
STARTCHAR uni1EC8
ENCODING 7880
SWIDTH 160 0
DWIDTH 4 0
BBX 6 23 -1 0
BITMAP
F0
F0
0C
0C
30
30
00
00
30
30
30
30
30
30
30
30
30
30
30
30
30
30
30
ENDCHAR
STARTCHAR uni1EC9
ENCODING 7881
SWIDTH 169 0
DWIDTH 4 0
BBX 6 19 -1 0
BITMAP
F0
F0
0C
0C
30
30
00
00
30
30
30
30
30
30
30
30
30
30
30
ENDCHAR
STARTCHAR uni1ECA
ENCODING 7882
SWIDTH 160 0
DWIDTH 4 0
BBX 2 20 1 -5
BITMAP
C0
C0
C0
C0
C0
C0
C0
C0
C0
C0
C0
C0
C0
C0
C0
00
00
00
C0
C0
ENDCHAR
STARTCHAR uni1ECB
ENCODING 7883
SWIDTH 170 0
DWIDTH 4 0
BBX 2 20 1 -5
BITMAP
C0
C0
00
00
C0
C0
C0
C0
C0
C0
C0
C0
C0
C0
C0
00
00
00
C0
C0
ENDCHAR
STARTCHAR uni1ECC
ENCODING 7884
SWIDTH 456 0
DWIDTH 11 0
BBX 9 20 1 -5
BITMAP
3F00
3F00
C180
C180
C180
C180
C180
C180
C180
C180
C180
C180
C180
3F00
3F00
0000
0000
0000
0C00
0C00
ENDCHAR
STARTCHAR uni1ECD
ENCODING 7885
SWIDTH 373 0
DWIDTH 9 0
BBX 7 16 1 -5
BITMAP
3C
3C
C6
C6
C6
C6
C6
C6
C6
3C
3C
00
00
00
18
18
ENDCHAR
STARTCHAR uni1ECE
ENCODING 7886
SWIDTH 456 0
DWIDTH 11 0
BBX 9 23 1 0
BITMAP
3C00
3C00
0300
0300
0C00
0C00
0000
0000
3F00
3F00
C180
C180
C180
C180
C180
C180
C180
C180
C180
C180
C180
3F00
3F00
ENDCHAR
STARTCHAR uni1ECF
ENCODING 7887
SWIDTH 373 0
DWIDTH 9 0
BBX 7 19 1 0
BITMAP
78
78
0E
0E
18
18
00
00
3C
3C
C6
C6
C6
C6
C6
C6
C6
3C
3C
ENDCHAR
STARTCHAR uni1ED0
ENCODING 7888
SWIDTH 456 0
DWIDTH 11 0
BBX 13 21 1 0
BITMAP
0C18
0C18
3760
3760
0000
0000
3F00
3F00
C180
C180
C180
C180
C180
C180
C180
C180
C180
C180
C180
3F00
3F00
ENDCHAR
STARTCHAR uni1ED1
ENCODING 7889
SWIDTH 373 0
DWIDTH 9 0
BBX 12 17 1 0
BITMAP
1830
1830
6CC0
6CC0
0000
0000
3C00
3C00
C600
C600
C600
C600
C600
C600
C600
3C00
3C00
ENDCHAR
STARTCHAR uni1ED2
ENCODING 7890
SWIDTH 456 0
DWIDTH 11 0
BBX 13 21 -3 0
BITMAP
C0C0
C0C0
3330
3330
0000
0000
03F0
03F0
0C18
0C18
0C18
0C18
0C18
0C18
0C18
0C18
0C18
0C18
0C18
03F0
03F0
ENDCHAR
STARTCHAR uni1ED3
ENCODING 7891
SWIDTH 373 0
DWIDTH 9 0
BBX 12 17 -4 0
BITMAP
C0C0
C0C0
3330
3330
0000
0000
01E0
01E0
0630
0630
0630
0630
0630
0630
0630
01E0
01E0
ENDCHAR
STARTCHAR uni1ED4
ENCODING 7892
SWIDTH 456 0
DWIDTH 11 0
BBX 13 23 1 0
BITMAP
01E0
01E0
0C18
0C18
3760
3760
0000
0000
3F00
3F00
C180
C180
C180
C180
C180
C180
C180
C180
C180
C180
C180
3F00
3F00
ENDCHAR
STARTCHAR uni1ED5
ENCODING 7893
SWIDTH 373 0
DWIDTH 9 0
BBX 12 19 1 0
BITMAP
03C0
03C0
1830
1830
6CC0
6CC0
0000
0000
3C00
3C00
C600
C600
C600
C600
C600
C600
C600
3C00
3C00
ENDCHAR
STARTCHAR uni1ED6
ENCODING 7894
SWIDTH 456 0
DWIDTH 11 0
BBX 9 25 1 0
BITMAP
3F00
3F00
0000
0000
0C00
0C00
3300
3300
0000
0000
3F00
3F00
C180
C180
C180
C180
C180
C180
C180
C180
C180
C180
C180
3F00
3F00
ENDCHAR
STARTCHAR uni1ED7
ENCODING 7895
SWIDTH 373 0
DWIDTH 9 0
BBX 7 21 1 0
BITMAP
7E
7E
00
00
18
18
6E
6E
00
00
3C
3C
C6
C6
C6
C6
C6
C6
C6
3C
3C
ENDCHAR
STARTCHAR uni1ED8
ENCODING 7896
SWIDTH 456 0
DWIDTH 11 0
BBX 9 26 1 -5
BITMAP
0C00
0C00
3300
3300
0000
0000
3F00
3F00
C180
C180
C180
C180
C180
C180
C180
C180
C180
C180
C180
3F00
3F00
0000
0000
0000
0C00
0C00
ENDCHAR
STARTCHAR uni1ED9
ENCODING 7897
SWIDTH 373 0
DWIDTH 9 0
BBX 7 22 1 -5
BITMAP
18
18
6E
6E
00
00
3C
3C
C6
C6
C6
C6
C6
C6
C6
3C
3C
00
00
00
18
18
ENDCHAR
STARTCHAR uni1EDA
ENCODING 7898
SWIDTH 547 0
DWIDTH 14 0
BBX 13 21 1 0
BITMAP
0600
0600
1800
1800
0018
0018
3F60
3F60
C180
C180
C180
C180
C180
C180
C180
C180
C180
C180
C180
3F00
3F00
ENDCHAR
STARTCHAR uni1EDB
ENCODING 7899
SWIDTH 473 0
DWIDTH 12 0
BBX 11 17 1 0
BITMAP
0C00
0C00
3000
3000
0060
0060
3D80
3D80
C300
C300
C300
C300
C300
C300
C300
3C00
3C00
ENDCHAR
STARTCHAR uni1EDC
ENCODING 7900
SWIDTH 547 0
DWIDTH 14 0
BBX 13 21 1 0
BITMAP
1800
1800
0600
0600
0018
0018
3F60
3F60
C180
C180
C180
C180
C180
C180
C180
C180
C180
C180
C180
3F00
3F00
ENDCHAR
STARTCHAR uni1EDD
ENCODING 7901
SWIDTH 473 0
DWIDTH 12 0
BBX 11 17 1 0
BITMAP
3000
3000
0C00
0C00
0060
0060
3D80
3D80
C300
C300
C300
C300
C300
C300
C300
3C00
3C00
ENDCHAR
STARTCHAR uni1EDE
ENCODING 7902
SWIDTH 547 0
DWIDTH 14 0
BBX 13 23 1 0
BITMAP
3C00
3C00
0300
0300
0C00
0C00
0018
0018
3F60
3F60
C180
C180
C180
C180
C180
C180
C180
C180
C180
C180
C180
3F00
3F00
ENDCHAR
STARTCHAR uni1EDF
ENCODING 7903
SWIDTH 473 0
DWIDTH 12 0
BBX 11 19 1 0
BITMAP
7800
7800
0600
0600
1800
1800
0060
0060
3D80
3D80
C300
C300
C300
C300
C300
C300
C300
3C00
3C00
ENDCHAR
STARTCHAR uni1EE0
ENCODING 7904
SWIDTH 547 0
DWIDTH 14 0
BBX 13 21 1 0
BITMAP
1980
1980
6600
6600
0018
0018
3F60
3F60
C180
C180
C180
C180
C180
C180
C180
C180
C180
C180
C180
3F00
3F00
ENDCHAR
STARTCHAR uni1EE1
ENCODING 7905
SWIDTH 473 0
DWIDTH 12 0
BBX 11 17 1 0
BITMAP
3300
3300
CC00
CC00
0060
0060
3D80
3D80
C300
C300
C300
C300
C300
C300
C300
3C00
3C00
ENDCHAR
STARTCHAR uni1EE2
ENCODING 7906
SWIDTH 547 0
DWIDTH 14 0
BBX 13 22 1 -5
BITMAP
0018
0018
3F60
3F60
C180
C180
C180
C180
C180
C180
C180
C180
C180
C180
C180
3F00
3F00
0000
0000
0000
0C00
0C00
ENDCHAR
STARTCHAR uni1EE3
ENCODING 7907
SWIDTH 473 0
DWIDTH 12 0
BBX 11 18 1 -5
BITMAP
0060
0060
3D80
3D80
C300
C300
C300
C300
C300
C300
C300
3C00
3C00
0000
0000
0000
1800
1800
ENDCHAR
STARTCHAR uni1EE4
ENCODING 7908
SWIDTH 456 0
DWIDTH 11 0
BBX 9 20 1 -5
BITMAP
C180
C180
C180
C180
C180
C180
C180
C180
C180
C180
C180
C180
C180
3F00
3F00
0000
0000
0000
0C00
0C00
ENDCHAR
STARTCHAR uni1EE5
ENCODING 7909
SWIDTH 378 0
DWIDTH 9 0
BBX 7 16 1 -5
BITMAP
C6
C6
C6
C6
C6
C6
C6
C6
C6
3E
3E
00
00
00
18
18
ENDCHAR
STARTCHAR uni1EE6
ENCODING 7910
SWIDTH 456 0
DWIDTH 11 0
BBX 9 23 1 0
BITMAP
3C00
3C00
0300
0300
0C00
0C00
0000
0000
C180
C180
C180
C180
C180
C180
C180
C180
C180
C180
C180
C180
C180
3F00
3F00
ENDCHAR
STARTCHAR uni1EE7
ENCODING 7911
SWIDTH 378 0
DWIDTH 9 0
BBX 7 19 1 0
BITMAP
78
78
06
06
18
18
00
00
C6
C6
C6
C6
C6
C6
C6
C6
C6
3E
3E
ENDCHAR
STARTCHAR uni1EE8
ENCODING 7912
SWIDTH 544 0
DWIDTH 14 0
BBX 13 21 1 0
BITMAP
0600
0600
1800
1800
0018
0018
C1E0
C1E0
C180
C180
C180
C180
C180
C180
C180
C180
C180
C180
C180
3F00
3F00
ENDCHAR
STARTCHAR uni1EE9
ENCODING 7913
SWIDTH 475 0
DWIDTH 12 0
BBX 11 17 1 0
BITMAP
0C00
0C00
3000
3000
0060
0060
C380
C380
C300
C300
C300
C300
C300
C300
C300
3F00
3F00
ENDCHAR
STARTCHAR uni1EEA
ENCODING 7914
SWIDTH 544 0
DWIDTH 14 0
BBX 13 21 1 0
BITMAP
1800
1800
0600
0600
0018
0018
C1E0
C1E0
C180
C180
C180
C180
C180
C180
C180
C180
C180
C180
C180
3F00
3F00
ENDCHAR
STARTCHAR uni1EEB
ENCODING 7915
SWIDTH 475 0
DWIDTH 12 0
BBX 11 17 1 0
BITMAP
3000
3000
0C00
0C00
0060
0060
C380
C380
C300
C300
C300
C300
C300
C300
C300
3F00
3F00
ENDCHAR
STARTCHAR uni1EEC
ENCODING 7916
SWIDTH 544 0
DWIDTH 14 0
BBX 13 23 1 0
BITMAP
3C00
3C00
0300
0300
0C00
0C00
0018
0018
C1E0
C1E0
C180
C180
C180
C180
C180
C180
C180
C180
C180
C180
C180
3F00
3F00
ENDCHAR
STARTCHAR uni1EED
ENCODING 7917
SWIDTH 475 0
DWIDTH 12 0
BBX 11 19 1 0
BITMAP
7800
7800
0600
0600
1800
1800
0060
0060
C380
C380
C300
C300
C300
C300
C300
C300
C300
3F00
3F00
ENDCHAR
STARTCHAR uni1EEE
ENCODING 7918
SWIDTH 544 0
DWIDTH 14 0
BBX 13 21 1 0
BITMAP
1B00
1B00
6600
6600
0018
0018
C1E0
C1E0
C180
C180
C180
C180
C180
C180
C180
C180
C180
C180
C180
3F00
3F00
ENDCHAR
STARTCHAR uni1EEF
ENCODING 7919
SWIDTH 475 0
DWIDTH 12 0
BBX 11 17 1 0
BITMAP
3700
3700
CC00
CC00
0060
0060
C380
C380
C300
C300
C300
C300
C300
C300
C300
3F00
3F00
ENDCHAR
STARTCHAR uni1EF0
ENCODING 7920
SWIDTH 544 0
DWIDTH 14 0
BBX 13 22 1 -5
BITMAP
0018
0018
C1E0
C1E0
C180
C180
C180
C180
C180
C180
C180
C180
C180
C180
C180
3F00
3F00
0000
0000
0000
0C00
0C00
ENDCHAR
STARTCHAR uni1EF1
ENCODING 7921
SWIDTH 475 0
DWIDTH 12 0
BBX 11 18 1 -5
BITMAP
0060
0060
C380
C380
C300
C300
C300
C300
C300
C300
C300
3F00
3F00
0000
0000
0000
1800
1800
ENDCHAR
STARTCHAR Ygrave
ENCODING 7922
SWIDTH 456 0
DWIDTH 11 0
BBX 9 21 1 0
BITMAP
1800
1800
0600
0600
0000
0000
C180
C180
3300
3300
3300
3300
0C00
0C00
0C00
0C00
0C00
0C00
0C00
0C00
0C00
ENDCHAR
STARTCHAR ygrave
ENCODING 7923
SWIDTH 378 0
DWIDTH 9 0
BBX 7 23 1 -6
BITMAP
30
30
0C
0C
00
00
C6
C6
C6
C6
C6
C6
C6
C6
C6
3E
3E
06
06
C6
C6
3C
3C
ENDCHAR
STARTCHAR endash
ENCODING 8211
SWIDTH 427 0
DWIDTH 11 0
BBX 9 2 1 6
BITMAP
FF80
FF80
ENDCHAR
STARTCHAR emdash
ENCODING 8212
SWIDTH 575 0
DWIDTH 14 0
BBX 13 2 1 6
BITMAP
FFF8
FFF8
ENDCHAR
STARTCHAR quoteleft
ENCODING 8216
SWIDTH 216 0
DWIDTH 5 0
BBX 4 6 1 11
BITMAP
C0
C0
C0
C0
30
30
ENDCHAR
STARTCHAR quoteright
ENCODING 8217
SWIDTH 216 0
DWIDTH 5 0
BBX 4 6 1 11
BITMAP
30
30
30
30
C0
C0
ENDCHAR
STARTCHAR quotesinglbase
ENCODING 8218
SWIDTH 216 0
DWIDTH 5 0
BBX 4 6 1 -2
BITMAP
30
30
30
30
C0
C0
ENDCHAR
STARTCHAR quotedblleft
ENCODING 8220
SWIDTH 432 0
DWIDTH 11 0
BBX 9 6 1 11
BITMAP
C600
C600
C600
C600
3180
3180
ENDCHAR
STARTCHAR quotedblright
ENCODING 8221
SWIDTH 432 0
DWIDTH 11 0
BBX 9 6 1 11
BITMAP
3180
3180
3180
3180
C600
C600
ENDCHAR
STARTCHAR quotedblbase
ENCODING 8222
SWIDTH 432 0
DWIDTH 11 0
BBX 9 6 1 -2
BITMAP
3180
3180
3180
3180
C600
C600
ENDCHAR
STARTCHAR dagger
ENCODING 8224
SWIDTH 456 0
DWIDTH 11 0
BBX 9 15 1 0
BITMAP
0C00
0C00
0C00
0C00
FF80
FF80
0C00
0C00
0C00
0C00
0C00
0C00
0C00
0C00
0C00
ENDCHAR
STARTCHAR daggerdbl
ENCODING 8225
SWIDTH 456 0
DWIDTH 11 0
BBX 9 15 1 0
BITMAP
0C00
0C00
0C00
0C00
FF80
FF80
0C00
0C00
0C00
FF80
FF80
0C00
0C00
0C00
0C00
ENDCHAR
STARTCHAR bullet
ENCODING 8226
SWIDTH 382 0
DWIDTH 10 0
BBX 8 7 1 4
BITMAP
3C
3C
FF
FF
FF
3C
3C
ENDCHAR
STARTCHAR ellipsis
ENCODING 8230
SWIDTH 746 0
DWIDTH 19 0
BBX 16 2 1 0
BITMAP
C183
C183
ENDCHAR
STARTCHAR perthousand
ENCODING 8240
SWIDTH 826 0
DWIDTH 21 0
BBX 19 15 1 0
BITMAP
306000
306000
CC6000
CC6000
CD8000
CD8000
318000
339980
031980
036660
036660
0C6660
0C6660
0C1980
0C1980
ENDCHAR
STARTCHAR guilsinglleft
ENCODING 8249
SWIDTH 279 0
DWIDTH 7 0
BBX 5 9 1 2
BITMAP
18
18
70
F0
C0
70
70
18
18
ENDCHAR
STARTCHAR guilsinglright
ENCODING 8250
SWIDTH 279 0
DWIDTH 7 0
BBX 5 9 1 2
BITMAP
C0
C0
70
78
18
70
70
C0
C0
ENDCHAR
STARTCHAR fraction
ENCODING 8260
SWIDTH 148 0
DWIDTH 4 0
BBX 8 15 -2 0
BITMAP
03
03
03
03
0C
0C
0C
3C
30
30
30
C0
C0
C0
C0
ENDCHAR
STARTCHAR zerosuperior
ENCODING 8304
SWIDTH 322 0
DWIDTH 8 0
BBX 6 9 1 7
BITMAP
78
FC
CC
CC
CC
CC
CC
78
78
ENDCHAR
STARTCHAR foursuperior
ENCODING 8308
SWIDTH 381 0
DWIDTH 10 0
BBX 8 9 1 7
BITMAP
0C
1C
1C
6C
6C
FF
0C
0C
0C
ENDCHAR
STARTCHAR fivesuperior
ENCODING 8309
SWIDTH 322 0
DWIDTH 8 0
BBX 6 9 1 7
BITMAP
FC
FC
C0
F8
0C
0C
CC
78
78
ENDCHAR
STARTCHAR sixsuperior
ENCODING 8310
SWIDTH 322 0
DWIDTH 8 0
BBX 6 9 1 7
BITMAP
78
F8
C0
F8
CC
CC
CC
78
78
ENDCHAR
STARTCHAR sevensuperior
ENCODING 8311
SWIDTH 322 0
DWIDTH 8 0
BBX 6 9 1 7
BITMAP
FC
FC
0C
18
60
60
60
60
60
ENDCHAR
STARTCHAR eightsuperior
ENCODING 8312
SWIDTH 322 0
DWIDTH 8 0
BBX 6 9 1 7
BITMAP
78
FC
CC
FC
78
CC
CC
78
78
ENDCHAR
STARTCHAR ninesuperior
ENCODING 8313
SWIDTH 322 0
DWIDTH 8 0
BBX 6 9 1 7
BITMAP
78
FC
CC
CC
7C
0C
CC
78
78
ENDCHAR
STARTCHAR zeroinferior
ENCODING 8320
SWIDTH 322 0
DWIDTH 8 0
BBX 6 9 1 -1
BITMAP
78
FC
CC
CC
CC
CC
CC
78
78
ENDCHAR
STARTCHAR oneinferior
ENCODING 8321
SWIDTH 203 0
DWIDTH 5 0
BBX 3 9 1 -1
BITMAP
60
E0
E0
60
60
60
60
60
60
ENDCHAR
STARTCHAR twoinferior
ENCODING 8322
SWIDTH 322 0
DWIDTH 8 0
BBX 6 9 1 -1
BITMAP
78
FC
CC
18
60
60
C0
FC
FC
ENDCHAR
STARTCHAR threeinferior
ENCODING 8323
SWIDTH 322 0
DWIDTH 8 0
BBX 6 9 1 -1
BITMAP
78
CC
CC
1C
18
0C
CC
78
78
ENDCHAR
STARTCHAR fourinferior
ENCODING 8324
SWIDTH 381 0
DWIDTH 10 0
BBX 8 9 1 -1
BITMAP
0C
1C
1C
6C
6C
FF
0C
0C
0C
ENDCHAR
STARTCHAR fiveinferior
ENCODING 8325
SWIDTH 322 0
DWIDTH 8 0
BBX 6 9 1 -1
BITMAP
FC
FC
C0
F8
0C
0C
CC
78
78
ENDCHAR
STARTCHAR sixinferior
ENCODING 8326
SWIDTH 322 0
DWIDTH 8 0
BBX 6 9 1 -1
BITMAP
78
F8
C0
F8
CC
CC
CC
78
78
ENDCHAR
STARTCHAR seveninferior
ENCODING 8327
SWIDTH 322 0
DWIDTH 8 0
BBX 6 9 1 -1
BITMAP
FC
FC
0C
18
60
60
60
60
60
ENDCHAR
STARTCHAR eightinferior
ENCODING 8328
SWIDTH 322 0
DWIDTH 8 0
BBX 6 9 1 -1
BITMAP
78
FC
CC
FC
78
CC
CC
78
78
ENDCHAR
STARTCHAR nineinferior
ENCODING 8329
SWIDTH 322 0
DWIDTH 8 0
BBX 6 9 1 -1
BITMAP
78
FC
CC
CC
7C
0C
CC
78
78
ENDCHAR
STARTCHAR dong
ENCODING 8363
SWIDTH 438 0
DWIDTH 11 0
BBX 10 17 1 -2
BITMAP
0300
0300
0FC0
0FC0
0300
0300
3F00
FF00
C300
C300
C300
3F00
3F00
0000
0000
FF00
FF00
ENDCHAR
STARTCHAR Euro
ENCODING 8364
SWIDTH 442 0
DWIDTH 11 0
BBX 9 15 1 0
BITMAP
1F80
1F80
7000
7000
FE00
FE00
7000
F800
F800
7000
7000
7000
7000
1F80
1F80
ENDCHAR
STARTCHAR uni2117
ENCODING 8471
SWIDTH 604 0
DWIDTH 15 0
BBX 13 15 1 0
BITMAP
3FE0
3FE0
C018
C018
CF18
CF18
CD98
CF98
CF18
CC18
CC18
C018
C018
3FE0
3FE0
ENDCHAR
STARTCHAR trademark
ENCODING 8482
SWIDTH 752 0
DWIDTH 19 0
BBX 17 8 1 7
BITMAP
FDE780
FDE780
319980
319980
319980
319980
319980
319980
ENDCHAR
STARTCHAR uni2126
ENCODING 8486
SWIDTH 456 0
DWIDTH 11 0
BBX 9 15 1 0
BITMAP
3F00
3F00
C180
C180
C180
C180
C180
C180
C180
3300
3300
3300
3300
F380
F380
ENDCHAR
STARTCHAR onethird
ENCODING 8531
SWIDTH 723 0
DWIDTH 18 0
BBX 16 17 1 -1
BITMAP
6000
E060
E060
6060
6060
6180
6180
6180
679E
0633
0633
0607
1806
1803
1833
181E
001E
ENDCHAR
STARTCHAR twothirds
ENCODING 8532
SWIDTH 792 0
DWIDTH 20 0
BBX 18 17 1 -1
BITMAP
780000
FC1800
CC1800
181800
601800
606000
C06000
FC6000
FDE700
0188C0
0188C0
0181C0
060100
0600C0
0608C0
060700
000700
ENDCHAR
STARTCHAR oneeighth
ENCODING 8539
SWIDTH 723 0
DWIDTH 18 0
BBX 16 17 1 -1
BITMAP
6000
E060
E060
6060
6060
6180
6180
6180
679E
063F
0633
063F
181E
1833
1833
181E
001E
ENDCHAR
STARTCHAR threeeighths
ENCODING 8540
SWIDTH 792 0
DWIDTH 20 0
BBX 18 17 1 -1
BITMAP
780000
CC1800
CC1800
1C1800
181800
0C6000
CC6000
786000
79E700
018FC0
0188C0
018FC0
060700
0608C0
0608C0
060700
000700
ENDCHAR
STARTCHAR fiveeighths
ENCODING 8541
SWIDTH 792 0
DWIDTH 20 0
BBX 18 17 1 -1
BITMAP
FC0000
FC1800
C01800
F81800
0C1800
0C6000
CC6000
786000
79E700
018FC0
0188C0
018FC0
060700
0608C0
0608C0
060700
000700
ENDCHAR
STARTCHAR seveneighths
ENCODING 8542
SWIDTH 742 0
DWIDTH 19 0
BBX 17 17 1 -1
BITMAP
FC0000
FC6000
0C6000
186000
606000
60C000
60C000
60C000
63CE00
033F80
033180
033F80
0C0E00
0C3180
0C3180
0C0E00
000E00
ENDCHAR
STARTCHAR partialdiff
ENCODING 8706
SWIDTH 382 0
DWIDTH 10 0
BBX 8 15 1 0
BITMAP
3C
3C
C3
C3
03
03
3F
FF
C3
C3
C3
CC
CC
30
30
ENDCHAR
STARTCHAR uni2206
ENCODING 8710
SWIDTH 530 0
DWIDTH 13 0
BBX 11 15 1 0
BITMAP
0F00
0F00
0F00
0F00
3180
3180
3180
3180
3180
C060
C060
C060
C060
FFE0
FFE0
ENDCHAR
STARTCHAR product
ENCODING 8719
SWIDTH 456 0
DWIDTH 11 0
BBX 9 19 1 -4
BITMAP
FF80
FF80
C180
C180
C180
C180
C180
C180
C180
C180
C180
C180
C180
C180
C180
C180
C180
C180
C180
ENDCHAR
STARTCHAR summation
ENCODING 8721
SWIDTH 456 0
DWIDTH 11 0
BBX 9 17 1 -2
BITMAP
FF80
FF80
C000
C000
3000
3000
0C00
0F00
0300
0C00
0C00
3000
3000
C000
C000
FF80
FF80
ENDCHAR
STARTCHAR minus
ENCODING 8722
SWIDTH 456 0
DWIDTH 11 0
BBX 9 2 1 6
BITMAP
FF80
FF80
ENDCHAR
STARTCHAR radical
ENCODING 8730
SWIDTH 604 0
DWIDTH 15 0
BBX 13 15 1 0
BITMAP
0018
0018
0018
0018
0018
0018
0060
F060
F060
0D80
0D80
0D80
0D80
0300
0300
ENDCHAR
STARTCHAR infinity
ENCODING 8734
SWIDTH 604 0
DWIDTH 15 0
BBX 13 9 1 2
BITMAP
3DE0
3DE0
C318
C318
C318
C318
C318
3DE0
3DE0
ENDCHAR
STARTCHAR integral
ENCODING 8747
SWIDTH 308 0
DWIDTH 8 0
BBX 6 25 1 -6
BITMAP
0C
0C
30
30
30
30
30
30
30
30
30
30
30
30
30
30
30
30
30
30
30
30
30
C0
C0
ENDCHAR
STARTCHAR approxequal
ENCODING 8776
SWIDTH 456 0
DWIDTH 11 0
BBX 9 11 1 2
BITMAP
3D80
3D80
CF00
CF00
0000
0000
0000
3D80
3D80
CF00
CF00
ENDCHAR
STARTCHAR notequal
ENCODING 8800
SWIDTH 456 0
DWIDTH 11 0
BBX 9 13 1 0
BITMAP
0300
0300
0300
0300
FF80
FF80
0C00
FF80
FF80
3000
3000
3000
3000
ENDCHAR
STARTCHAR lessequal
ENCODING 8804
SWIDTH 456 0
DWIDTH 11 0
BBX 9 13 1 -2
BITMAP
0300
0300
0C00
3C00
3000
0C00
0C00
0300
0300
0000
0000
FF80
FF80
ENDCHAR
STARTCHAR greaterequal
ENCODING 8805
SWIDTH 456 0
DWIDTH 11 0
BBX 9 13 1 -2
BITMAP
3000
3000
0C00
0F00
0300
0C00
0C00
3000
3000
0000
0000
FF80
FF80
ENDCHAR
STARTCHAR dotmath
ENCODING 8901
SWIDTH 160 0
DWIDTH 4 0
BBX 2 2 1 6
BITMAP
C0
C0
ENDCHAR
STARTCHAR uni2579
ENCODING 9593
SWIDTH 234 0
DWIDTH 6 0
BBX 4 3 1 6
BITMAP
F0
F0
F0
ENDCHAR
STARTCHAR lozenge
ENCODING 9674
SWIDTH 456 0
DWIDTH 11 0
BBX 9 9 1 2
BITMAP
0C00
0C00
3300
F380
C180
3300
3300
0C00
0C00
ENDCHAR
STARTCHAR musicalnote
ENCODING 9834
SWIDTH 456 0
DWIDTH 11 0
BBX 9 15 1 0
BITMAP
0C00
0C00
0F00
0F00
0F80
0F80
0D80
0D80
0D80
0C00
0C00
F000
F000
F000
F000
ENDCHAR
STARTCHAR fi
ENCODING 64257
SWIDTH 465 0
DWIDTH 12 0
BBX 10 15 1 0
BITMAP
0CC0
0CC0
3000
3000
FCC0
FCC0
30C0
30C0
30C0
30C0
30C0
30C0
30C0
30C0
30C0
ENDCHAR
STARTCHAR fl
ENCODING 64258
SWIDTH 455 0
DWIDTH 11 0
BBX 9 15 1 0
BITMAP
0D80
0D80
3180
3180
FD80
FD80
3180
3180
3180
3180
3180
3180
3180
3180
3180
ENDCHAR
STARTCHAR .notdef
ENCODING -1
SWIDTH 420 0
DWIDTH 11 0
BBX 10 20 0 -3
BITMAP
7FC0
FFC0
E1C0
E1C0
9E40
9E40
9E40
9E40
F9C0
E1C0
E7C0
E7C0
E7C0
FFC0
FFC0
E7C0
E7C0
FFC0
7FC0
3F00
ENDCHAR
STARTCHAR .null
ENCODING -1
SWIDTH 0 0
DWIDTH 0 0
BBX 1 1 0 0
BITMAP
00
ENDCHAR
STARTCHAR nonmarkingreturn
ENCODING -1
SWIDTH 184 0
DWIDTH 5 0
BBX 1 1 0 0
BITMAP
00
ENDCHAR
STARTCHAR gravecircumflex
ENCODING -1
SWIDTH 530 0
DWIDTH 13 0
BBX 11 4 1 13
BITMAP
C180
C180
3360
3360
ENDCHAR
STARTCHAR brevetilde
ENCODING -1
SWIDTH 382 0
DWIDTH 10 0
BBX 8 8 1 13
BITMAP
FF
FF
00
00
C3
C3
3C
3C
ENDCHAR
STARTCHAR breveacute
ENCODING -1
SWIDTH 382 0
DWIDTH 10 0
BBX 8 8 1 13
BITMAP
0C
0C
30
30
C3
C3
3C
3C
ENDCHAR
STARTCHAR circumflexhook
ENCODING -1
SWIDTH 530 0
DWIDTH 13 0
BBX 11 6 1 13
BITMAP
0380
0380
3060
3060
CD80
CD80
ENDCHAR
STARTCHAR circumflexacute
ENCODING -1
SWIDTH 530 0
DWIDTH 13 0
BBX 11 4 1 13
BITMAP
3060
3060
CD80
CD80
ENDCHAR
STARTCHAR brevehook
ENCODING -1
SWIDTH 382 0
DWIDTH 10 0
BBX 8 8 1 13
BITMAP
3C
3C
0C
0C
C3
C3
3C
3C
ENDCHAR
STARTCHAR brevegrave
ENCODING -1
SWIDTH 382 0
DWIDTH 10 0
BBX 8 8 1 13
BITMAP
30
30
0C
0C
C3
C3
3C
3C
ENDCHAR
ENDFONT
